<svg width="46" height="46" viewBox="0 0 46 46" fill="none" xmlns="http://www.w3.org/2000/svg">
<path d="M42.4121 0.5C43.231 0.500091 44.0165 0.825312 44.5957 1.4043L44.7012 1.51562C45.2137 2.08198 45.4999 2.82006 45.5 3.58789V32.0586C45.5 33.7641 44.1173 35.1473 42.4121 35.1475C40.7068 35.1475 39.3232 33.7642 39.3232 32.0586V11.0439L5.77148 44.5957C4.60307 45.7636 2.73173 45.8002 1.51953 44.7051L1.4043 44.5957C0.198515 43.3896 0.198413 41.4343 1.4043 40.2285L34.9561 6.67676H13.9414C12.2358 6.67676 10.8525 5.29346 10.8525 3.58789C10.8527 1.88248 12.2359 0.5 13.9414 0.5H42.4121Z" fill="#181818" stroke="#181818"/>
</svg>
