<svg width="62" height="60" viewBox="0 0 62 60" fill="none" xmlns="http://www.w3.org/2000/svg">
<g clip-path="url(#clip0_2072_388)">
<path d="M31 59.1385C48.1208 59.1385 62 45.8999 62 29.5692C62 13.2386 48.1208 0 31 0C13.8792 0 0 13.2386 0 29.5692C0 45.8999 13.8792 59.1385 31 59.1385Z" fill="#05930C"/>
<path d="M9.42172 8.33936L53.2174 50.1906C47.5856 55.7101 39.7125 59.1385 31 59.1385C13.8792 59.1385 0 45.8999 0 29.5692C0 21.2392 3.61117 13.7137 9.42172 8.33936Z" fill="white" fill-opacity="0.1"/>
<path d="M29.479 40.2418C27.3701 41.2206 25.0414 41.6902 22.6977 41.6094C19.5642 41.7404 16.5239 40.575 14.3568 38.4123C12.2034 36.1098 11.0803 33.095 11.2277 30.0127C11.0761 26.6726 12.3481 23.4162 14.754 20.9849C17.1058 18.6898 20.362 17.4454 23.7246 17.5567C25.6888 17.4852 27.6475 17.7997 29.479 18.4807V21.3915C27.7026 20.4497 25.6985 19.9687 23.6665 19.9962C21.1068 19.9152 18.635 20.892 16.8852 22.6759C15.0712 24.6483 14.1332 27.2166 14.2696 29.8372C14.1354 32.3138 15.0101 34.7439 16.7108 36.6196C18.3609 38.3119 20.703 39.2331 23.124 39.1422C25.3564 39.1952 27.5601 38.6544 29.4887 37.5806L29.479 40.2418ZM51.1112 24.45L50.7237 26.1687H46.2674L45.2018 31.0477H49.9874L49.5321 32.7664H44.8433L43.3418 39.2346H41.2008L42.6637 32.7664H38.4012L36.9674 39.2346H34.8749L36.3087 32.7664H31.8137L32.1527 31.0477H36.6671L37.7037 26.178H32.9858L33.3443 24.4593H38.0621L39.4958 17.9263H41.6562L40.2224 24.4593H44.514L45.9768 17.9263H48.0693L46.6355 24.4593L51.1112 24.45ZM44.1652 26.1687H39.864L38.7499 31.0477H43.0705L44.1652 26.1687Z" fill="white"/>
</g>
<defs>
<clipPath id="clip0_2072_388">
<rect width="62" height="59.1385" fill="white"/>
</clipPath>
</defs>
</svg>
