<svg width="62" height="62" viewBox="0 0 62 62" fill="none" xmlns="http://www.w3.org/2000/svg">
<path fill-rule="evenodd" clip-rule="evenodd" d="M8.60812 55.802L3.63281 0H58.3035L53.3229 55.7928L30.9351 62L8.60812 55.802Z" fill="#0071BC"/>
<path fill-rule="evenodd" clip-rule="evenodd" d="M31.0142 57.2525L49.0821 52.282L53.3154 4.64709H31.0142V57.2525Z" fill="#29ABE2"/>
<path fill-rule="evenodd" clip-rule="evenodd" d="M15.0212 25.1485L15.6206 31.9823L31.0141 25.1485V18.3036L15.0212 25.1485Z" fill="#B3B3B3"/>
<path fill-rule="evenodd" clip-rule="evenodd" d="M48.0629 10.9971L31.0142 18.3037V25.1486L47.4751 17.8309L48.0629 10.9971Z" fill="#E6E6E6"/>
<path fill-rule="evenodd" clip-rule="evenodd" d="M31.0141 43.0292L30.9612 43.0371L23.3271 40.987L22.8284 35.536H15.9578L16.9166 46.2747L30.9597 50.163L31.0141 50.1502V43.0292Z" fill="#E6E6E6"/>
<path fill-rule="evenodd" clip-rule="evenodd" d="M31.0142 25.1486V31.9824H39.3722L38.6126 40.9171L31.0142 43.035V50.1555L45.0107 46.2672L46.8538 25.1486H31.0142Z" fill="white"/>
<path fill-rule="evenodd" clip-rule="evenodd" d="M31.0141 25.1486H15.0212L15.6206 31.9824H31.0141V25.1486Z" fill="#E6E6E6"/>
<path fill-rule="evenodd" clip-rule="evenodd" d="M31.014 17.8309V10.9971H30.9446H13.8062L14.4126 17.8309H31.014Z" fill="#E6E6E6"/>
<path fill-rule="evenodd" clip-rule="evenodd" d="M31.0142 10.9971V17.7452V17.8309H47.4751L48.0629 10.9971H31.0142Z" fill="white"/>
</svg>
