<svg width="62" height="62" viewBox="0 0 62 62" fill="none" xmlns="http://www.w3.org/2000/svg">
<g clip-path="url(#clip0_2072_379)">
<path d="M34.3061 54.2363L33.2562 56.7856C33.0476 57.2901 32.5707 57.6319 32.034 57.6551C31.6796 57.6684 31.3219 57.6784 30.9609 57.6784C18.6035 57.6718 7.67011 48.9322 4.96081 36.89L0.754395 37.8426C2.27466 44.5973 6.09023 50.7279 11.4989 55.1094C16.9705 59.5404 23.8631 61.9867 30.9145 62C30.9245 62 30.9775 62 30.9775 62C31.3915 62 31.8022 61.9901 32.2128 61.9735C34.4253 61.8805 36.4027 60.4898 37.2474 58.4286L38.6186 55.0961L34.3061 54.2363Z" fill="url(#paint0_linear_2072_379)"/>
<path d="M1.09965 39.2135C0.37098 36.5515 0 33.7865 0 31.0017C0 18.289 7.95903 6.66503 19.8065 2.08118L21.3599 6.11404C11.1618 10.0606 4.31239 20.0614 4.31239 31.0017C4.31239 33.4015 4.63034 35.778 5.25633 38.0683L1.09965 39.2135Z" fill="url(#paint1_linear_2072_379)"/>
<path d="M54.6599 18.7205C50.0494 9.84153 40.9742 4.32497 30.9816 4.32497C27.4409 4.32497 23.9997 5.00872 20.7603 6.35301L19.1077 2.35997C22.8735 0.796612 26.8679 0 30.9816 0C42.5905 0 53.1297 6.40612 58.4854 16.7223L54.6599 18.7205Z" fill="url(#paint2_linear_2072_379)"/>
<path d="M21.731 24.6055C24.2317 24.6055 26.2687 25.9431 27.3152 28.2765L27.398 28.4592L31.5978 27.0285L31.5083 26.8128C29.8821 22.8397 26.1362 20.3701 21.731 20.3701C18.6342 20.3701 16.1169 21.366 14.0369 23.4106C11.9702 25.442 10.9236 27.9978 10.9236 31.0083C10.9236 33.9923 11.9702 36.5348 14.0369 38.5662C16.1169 40.6109 18.6342 41.6067 21.731 41.6067C26.1362 41.6067 29.8821 39.1371 31.5083 35.1673L31.5978 34.9516L27.3914 33.5176L27.3119 33.7068C26.3746 36.0004 24.2879 37.3713 21.731 37.3713C19.9889 37.3713 18.5183 36.7606 17.3524 35.559C16.1733 34.3408 15.5771 32.8107 15.5771 31.0116C15.5771 29.1993 16.16 27.699 17.3524 26.4244C18.5149 25.2163 19.9889 24.6055 21.731 24.6055Z" fill="#09293F"/>
<path d="M48.0356 20.7618L42.0507 35.9539L36.0259 20.7618H31.0974L39.5467 41.4971L33.5351 56.1216L37.8442 56.9813L52.6925 20.7618H48.0356Z" fill="#09293F"/>
<path d="M58.4855 16.7223C60.6659 20.9699 62 25.9589 62 31.0656C62 42.9812 55.2984 53.3266 45.4699 58.5158L43.3464 54.7503C51.8693 50.3057 57.6905 41.3676 57.6905 31.0656C57.6905 26.5951 56.5974 22.4216 54.66 18.7205L58.4855 16.7223Z" fill="url(#paint3_linear_2072_379)"/>
</g>
<defs>
<linearGradient id="paint0_linear_2072_379" x1="3.14738" y1="47.9456" x2="32.7469" y2="55.8488" gradientUnits="userSpaceOnUse">
<stop stop-color="#315C55"/>
<stop offset="1" stop-color="#09293F"/>
</linearGradient>
<linearGradient id="paint1_linear_2072_379" x1="11.5979" y1="12.2042" x2="8.84316" y2="39.0248" gradientUnits="userSpaceOnUse">
<stop stop-color="#4FB38D"/>
<stop offset="1" stop-color="#315C55"/>
</linearGradient>
<linearGradient id="paint2_linear_2072_379" x1="24.5847" y1="9.36026" x2="46.4309" y2="13.3648" gradientUnits="userSpaceOnUse">
<stop stop-color="#4FB38D"/>
<stop offset="1" stop-color="#97DEC0"/>
</linearGradient>
<linearGradient id="paint3_linear_2072_379" x1="53.3932" y1="29.6333" x2="41.4809" y2="51.9369" gradientUnits="userSpaceOnUse">
<stop stop-color="#97DEC0"/>
<stop offset="1" stop-color="#FFFFF0" stop-opacity="0"/>
</linearGradient>
<clipPath id="clip0_2072_379">
<rect width="62" height="62" fill="white"/>
</clipPath>
</defs>
</svg>
