<svg width="46" height="46" viewBox="0 0 46 46" fill="none" xmlns="http://www.w3.org/2000/svg">
<path d="M24.4142 33.0858C23.6332 33.8668 22.3668 33.8668 21.5858 33.0858L10.0146 21.5146C9.24324 20.7432 9.2323 19.496 9.99003 18.7112L11.2362 17.4205C12.013 16.616 13.2985 16.6047 14.0892 17.3955L20.125 23.4313V2C20.125 0.895428 21.0204 0 22.125 0H23.875C24.9796 0 25.875 0.89543 25.875 2V23.4313L31.9108 17.3955C32.7015 16.6047 33.987 16.616 34.7638 17.4205L36.01 18.7112C36.7677 19.496 36.7568 20.7432 35.9854 21.5146L24.4142 33.0858ZM5.75 46C4.16875 46 2.8151 45.437 1.68906 44.3109C0.563021 43.1849 0 41.8312 0 40.25V33.625C0 32.5204 0.895431 31.625 2 31.625H3.75C4.85457 31.625 5.75 32.5204 5.75 33.625V38.25C5.75 39.3546 6.64543 40.25 7.75 40.25H38.25C39.3546 40.25 40.25 39.3546 40.25 38.25V33.625C40.25 32.5204 41.1454 31.625 42.25 31.625H44C45.1046 31.625 46 32.5204 46 33.625V40.25C46 41.8312 45.437 43.1849 44.3109 44.3109C43.1849 45.437 41.8312 46 40.25 46H5.75Z" fill="white"/>
</svg>
