<svg width="62" height="62" viewBox="0 0 62 62" fill="none" xmlns="http://www.w3.org/2000/svg">
<g clip-path="url(#clip0_2072_404)">
<path d="M20.7474 61.7214C26.4514 61.7214 31.0807 57.1128 31.0807 51.4345V41.1476H20.7474C15.0434 41.1476 10.4141 45.7561 10.4141 51.4345C10.4141 57.1128 15.0434 61.7214 20.7474 61.7214Z" fill="#0ACF83"/>
<path d="M10.4141 30.8606C10.4141 25.1823 15.0434 20.5737 20.7474 20.5737H31.0807V41.1475H20.7474C15.0434 41.1475 10.4141 36.539 10.4141 30.8606Z" fill="#A259FF"/>
<path d="M10.4141 10.2869C10.4141 4.60853 15.0434 0 20.7474 0H31.0807V20.5738H20.7474C15.0434 20.5738 10.4141 15.9653 10.4141 10.2869Z" fill="#F24E1E"/>
<path d="M31.0808 0H41.4141C47.1181 0 51.7475 4.60853 51.7475 10.2869C51.7475 15.9653 47.1181 20.5738 41.4141 20.5738H31.0808V0Z" fill="#FF7262"/>
<path d="M51.7475 30.8606C51.7475 36.539 47.1181 41.1475 41.4141 41.1475C35.7101 41.1475 31.0808 36.539 31.0808 30.8606C31.0808 25.1823 35.7101 20.5737 41.4141 20.5737C47.1181 20.5737 51.7475 25.1823 51.7475 30.8606Z" fill="#1ABCFE"/>
</g>
<defs>
<clipPath id="clip0_2072_404">
<rect width="62" height="61.7214" fill="white"/>
</clipPath>
</defs>
</svg>

