<svg width="62" height="62" viewBox="0 0 62 62" fill="none" xmlns="http://www.w3.org/2000/svg">
<g clip-path="url(#clip0_2072_418)">
<path fill-rule="evenodd" clip-rule="evenodd" d="M59.9006 28.316L33.5677 1.9852C32.0523 0.468476 29.5926 0.468476 28.0752 1.9852L22.6072 7.4532L29.5437 14.3896C31.1557 13.845 33.0039 14.2103 34.289 15.4954C35.5801 16.7884 35.9427 18.6526 35.3849 20.2699L42.0698 26.9548C43.6871 26.3976 45.5533 26.7583 46.845 28.052C48.6502 29.8566 48.6502 32.7815 46.845 34.5874C45.0391 36.3933 42.1142 36.3933 40.3076 34.5874C38.9497 33.2282 38.6142 31.2337 39.3017 29.5608L33.0674 23.3265L33.0668 39.7325C33.5068 39.9508 33.9224 40.2413 34.289 40.6066C36.0943 42.4112 36.0943 45.3361 34.289 47.1433C32.4831 48.9486 29.5569 48.9486 27.7536 47.1433C25.9484 45.3361 25.9484 42.4112 27.7536 40.6066C28.1996 40.1613 28.7158 39.8244 29.2664 39.5981V23.0393C28.7158 22.8143 28.2003 22.4794 27.7536 22.0308C26.3858 20.6649 26.0569 18.6579 26.7577 16.9784L19.9206 10.1399L1.86484 28.1943C0.347461 29.7123 0.347461 32.172 1.86484 33.6887L28.1977 60.0202C29.7137 61.537 32.1728 61.537 33.6908 60.0202L59.9006 33.8112C61.4173 32.2938 61.4173 29.8328 59.9006 28.316Z" fill="#DE4C36"/>
</g>
<defs>
<clipPath id="clip0_2072_418">
<rect width="60.5469" height="60.3113" fill="white" transform="translate(0.726562 0.847656)"/>
</clipPath>
</defs>
</svg>
