<svg width="62" height="62" viewBox="0 0 62 62" fill="none" xmlns="http://www.w3.org/2000/svg">
<path fill-rule="evenodd" clip-rule="evenodd" d="M31.0002 1.44653C14.2827 1.44653 0.726562 14.9393 0.726562 31.5842C0.726562 44.8998 9.4009 56.1966 21.4296 60.1817C22.9425 60.4606 23.498 59.5279 23.498 58.7319C23.498 58.0132 23.4699 55.6392 23.4569 53.1209C15.0347 54.944 13.2575 49.565 13.2575 49.565C11.8804 46.0815 9.8962 45.1553 9.8962 45.1553C7.14947 43.2848 10.1032 43.3232 10.1032 43.3232C13.1432 43.5358 14.744 46.4289 14.744 46.4289C17.4441 51.0363 21.8261 49.7043 23.5536 48.9342C23.8254 46.9864 24.6099 45.6568 25.4757 44.9042C18.7515 44.1422 11.6829 41.558 11.6829 30.0101C11.6829 26.7198 12.8655 24.0313 14.8021 21.9207C14.4878 21.1617 13.4516 18.0964 15.0954 13.9452C15.0954 13.9452 17.6376 13.1352 23.4228 17.0344C25.8377 16.3666 28.4275 16.0318 31.0002 16.0203C33.573 16.0318 36.1648 16.3666 38.5842 17.0344C44.3624 13.1352 46.9011 13.9452 46.9011 13.9452C48.5489 18.0964 47.5122 21.1617 47.1979 21.9207C49.139 24.0313 50.3136 26.7198 50.3136 30.0101C50.3136 41.5855 43.2314 44.1342 36.4902 44.8803C37.5761 45.8155 38.5436 47.6496 38.5436 50.4614C38.5436 54.4938 38.5085 57.7392 38.5085 58.7319C38.5085 59.5339 39.0534 60.4736 40.588 60.1777C52.6101 56.1881 61.2734 44.8953 61.2734 31.5842C61.2734 14.9393 47.7193 1.44653 31.0002 1.44653ZM12.065 44.3782C11.9984 44.5279 11.7617 44.5729 11.5462 44.47C11.3266 44.3717 11.2033 44.1676 11.2745 44.0174C11.3396 43.8632 11.5768 43.8203 11.7958 43.9236C12.0159 44.0219 12.1412 44.228 12.065 44.3782ZM13.5542 45.701C13.4098 45.8342 13.1275 45.7724 12.936 45.5617C12.738 45.3516 12.7009 45.0707 12.8473 44.9354C12.9962 44.8022 13.2699 44.8645 13.4684 45.0747C13.6665 45.2873 13.7051 45.5662 13.5542 45.701ZM14.5758 47.3934C14.3903 47.5217 14.087 47.4014 13.8995 47.1334C13.714 46.8654 13.714 46.544 13.9035 46.4152C14.0915 46.2865 14.3903 46.4023 14.5803 46.6683C14.7653 46.9408 14.7653 47.2621 14.5758 47.3934ZM16.3035 49.3535C16.1376 49.5356 15.7841 49.4867 15.5255 49.2382C15.2608 48.9951 15.1871 48.6503 15.3535 48.4681C15.5215 48.2855 15.8769 48.3369 16.1376 48.5834C16.4003 48.826 16.4805 49.1733 16.3035 49.3535ZM18.5365 50.0152C18.4633 50.2512 18.1229 50.3585 17.78 50.2582C17.4376 50.1549 17.2135 49.8784 17.2826 49.6399C17.3538 49.4023 17.6957 49.2905 18.0411 49.3978C18.383 49.5006 18.6076 49.7751 18.5365 50.0152ZM21.0776 50.2958C21.0862 50.5444 20.7954 50.7505 20.4354 50.755C20.0735 50.763 19.7807 50.5618 19.7767 50.3173C19.7767 50.0663 20.061 49.8622 20.4229 49.8562C20.7829 49.8492 21.0776 50.0488 21.0776 50.2958ZM23.5741 50.2006C23.6172 50.4431 23.367 50.6922 23.0096 50.7585C22.6581 50.8224 22.3328 50.6727 22.2882 50.4321C22.2446 50.1836 22.4992 49.9346 22.8501 49.8702C23.2081 49.8083 23.5284 49.954 23.5741 50.2006Z" fill="#161614"/>
</svg>
