<svg width="62" height="62" viewBox="0 0 62 62" fill="none" xmlns="http://www.w3.org/2000/svg">
<g clip-path="url(#clip0_2072_419)">
<path d="M60.9571 24.7587L60.8703 24.5367L52.4416 2.54409C52.2703 2.11277 51.9671 1.74656 51.5755 1.49774C51.1809 1.24867 50.7188 1.12822 50.2528 1.15302C49.7868 1.17782 49.3401 1.34664 48.9741 1.63618C48.6116 1.92687 48.3502 2.32461 48.2272 2.77268L42.5286 20.2128H19.4735L13.775 2.77268C13.652 2.32461 13.3906 1.92687 13.0281 1.63618C12.6637 1.34469 12.2172 1.1746 11.7513 1.14977C11.2853 1.12494 10.8232 1.24663 10.4299 1.49774C10.0366 1.74554 9.73217 2.11197 9.56067 2.54409L1.1223 24.5656L1.03537 24.7845C-0.175957 27.9562 -0.324854 31.4354 0.611067 34.6989C1.54699 37.9624 3.51714 40.834 6.22524 42.8815L6.25744 42.904L6.33149 42.9619L19.1871 52.5851L25.5423 57.3984L29.4059 60.3248C29.8597 60.6678 30.413 60.8534 30.9819 60.8534C31.5505 60.8534 32.1039 60.6678 32.5578 60.3248L36.4212 57.3984L42.7797 52.5851L55.7094 42.904L55.7447 42.8782C58.462 40.8326 60.44 37.9587 61.3803 34.69C62.3207 31.4214 62.1721 27.9356 60.9571 24.7587Z" fill="#E24329"/>
<path d="M60.9577 24.7588L60.8709 24.5367C56.7601 25.3838 52.8864 27.126 49.5252 29.6395L31.0161 43.667C37.3264 48.4385 42.819 52.5852 42.819 52.5852L55.7485 42.904L55.784 42.8783C58.4945 40.8276 60.4648 37.9512 61.3981 34.683C62.3313 31.4147 62.1767 27.9316 60.9577 24.7588Z" fill="#FC6D26"/>
<path d="M19.197 52.5851L25.5427 57.3984L29.4061 60.3248C29.8601 60.6678 30.4132 60.8534 30.9821 60.8534C31.5509 60.8534 32.1043 60.6678 32.558 60.3248L36.4214 57.3984L42.7801 52.5851C42.7801 52.5851 37.2875 48.4385 30.9772 43.667L19.197 52.5851Z" fill="#FCA326"/>
<path d="M12.4681 29.6524C9.10772 27.1379 5.23363 25.3967 1.12246 24.5527L1.03553 24.7717C-0.17891 27.9449 -0.329445 31.4268 0.60659 34.693C1.54263 37.9593 3.51455 40.833 6.2254 42.8815L6.2576 42.904L6.33165 42.9619L19.1872 52.5851L31.0157 43.6669L12.4681 29.6524Z" fill="#FC6D26"/>
</g>
<defs>
<clipPath id="clip0_2072_419">
<rect width="62" height="62" fill="white"/>
</clipPath>
</defs>
</svg>
