<svg width="62" height="62" viewBox="0 0 62 62" fill="none" xmlns="http://www.w3.org/2000/svg">
<path fill-rule="evenodd" clip-rule="evenodd" d="M8.60797 55.8023L3.63281 0H58.3013L53.3208 55.7935L30.9336 62L8.60797 55.8023Z" fill="#E44D26"/>
<path fill-rule="evenodd" clip-rule="evenodd" d="M30.967 57.256L49.057 52.2407L53.3131 4.56262H30.967V57.256Z" fill="#F16529"/>
<path d="M21.9107 25.2589H30.967V32.1027H15.6516L13.8057 11.4066H30.967V18.2506H21.2852L21.9107 25.2589Z" fill="#EBEBEB"/>
<path d="M30.937 43.0413L30.967 43.0333V50.1538L30.9355 50.1626L16.9162 46.2707L15.9574 35.5248H22.8276L23.3149 40.9831L30.937 43.0413Z" fill="#EBEBEB"/>
<path d="M30.9434 11.4066H48.0875L47.4747 18.2506H30.9434V11.4066Z" fill="white"/>
<path d="M30.9434 32.1027V25.2589H46.8519L46.685 27.0967L44.9738 46.2707L30.9434 50.1593V43.039L38.5765 40.9788L39.3709 32.1027H30.9434Z" fill="white"/>
</svg>
