<svg width="62" height="62" viewBox="0 0 62 62" fill="none" xmlns="http://www.w3.org/2000/svg">
<g clip-path="url(#clip0_2072_355)">
<path fill-rule="evenodd" clip-rule="evenodd" d="M0 0H62V62H0V0Z" fill="#F7DF1E"/>
<path fill-rule="evenodd" clip-rule="evenodd" d="M16.3021 51.8117L21.0468 48.9403C21.9621 50.5632 22.7948 51.9364 24.7921 51.9364C26.7066 51.9364 27.9136 51.1875 27.9136 48.2745V28.464H33.74V48.3568C33.74 54.3915 30.2027 57.1383 25.0418 57.1383C20.3809 57.1383 17.6754 54.7243 16.302 51.8112" fill="black"/>
<path fill-rule="evenodd" clip-rule="evenodd" d="M36.9048 51.1874L41.6489 48.4406C42.8977 50.4801 44.5208 51.9782 47.3923 51.9782C49.8065 51.9782 51.346 50.7712 51.346 49.1064C51.346 47.1088 49.7646 46.4012 47.1009 45.2363L45.6447 44.6115C41.441 42.8223 38.6525 40.5749 38.6525 35.8304C38.6525 31.4605 41.9819 28.1309 47.1844 28.1309C50.8884 28.1309 53.552 29.4211 55.4662 32.7923L50.9298 35.7054C49.9309 33.916 48.8491 33.2086 47.1845 33.2086C45.4781 33.2086 44.396 34.2906 44.396 35.7054C44.396 37.4534 45.4781 38.1611 47.9749 39.2432L49.4314 39.8675C54.3841 41.9901 57.1726 44.154 57.1726 49.0232C57.1726 54.2674 53.0524 57.1388 47.5173 57.1388C42.107 57.1388 38.611 54.5586 36.9049 51.1874" fill="black"/>
</g>
<defs>
<clipPath id="clip0_2072_355">
<rect width="62" height="62" fill="white"/>
</clipPath>
</defs>
</svg>
