<svg width="62" height="62" viewBox="0 0 62 62" fill="none" xmlns="http://www.w3.org/2000/svg">
<path d="M55.5302 30.5262C55.5302 27.339 52.9465 24.7553 49.7592 24.7553C49.5543 24.7553 49.352 24.7663 49.1527 24.7872L57.079 1.4093H23.3947L31.31 24.7669C31.1939 24.7598 31.0772 24.7553 30.9593 24.7553C27.7722 24.7553 25.1883 27.339 25.1883 30.5262C25.1883 33.1025 26.8767 35.2835 29.207 36.0256C27.9762 38.1576 26.4275 40.0776 24.6692 41.7366C22.2784 43.9921 19.5421 45.7024 16.5825 46.7563C13.059 44.9462 11.395 40.9206 12.8965 37.3909C13.0659 36.9924 13.2391 36.5884 13.4045 36.1861C15.9573 35.5904 17.8593 33.302 17.8593 30.5676C17.8593 27.3804 15.2757 24.7968 12.0883 24.7968C8.90112 24.7968 6.31731 27.3804 6.31731 30.5676C6.31731 32.5221 7.28984 34.2484 8.77625 35.2924C7.34791 38.5446 5.24824 41.9481 4.59412 45.8929C3.81018 50.6205 4.59158 55.6387 8.6804 58.4727C18.203 65.0726 28.5396 54.3812 39.4382 51.6937C43.388 50.7196 47.7237 50.8766 51.2036 48.8611C53.8169 47.3475 55.5396 44.8392 56.0286 42.0231C56.5116 39.2411 55.8074 36.4713 54.188 34.2253C55.0256 33.2236 55.5302 31.9341 55.5302 30.5262Z" fill="#99425B"/>
<path d="M54.6401 41.782C54.2155 44.2268 52.7056 46.3624 50.4973 47.6415C48.4388 48.8337 45.9719 49.1896 43.3602 49.5662C41.9611 49.7679 40.5143 49.9767 39.1009 50.3252C35.3637 51.2467 31.7439 53.0448 28.2434 54.7835C21.238 58.2631 15.1881 61.2678 9.48346 57.3143C5.30486 54.4181 5.49781 49.0598 5.98463 46.1235C6.4358 43.4031 7.65554 40.8978 8.83511 38.4748C9.03892 38.0559 9.23864 37.6448 9.433 37.2372C10.0176 37.4707 10.6395 37.6301 11.2877 37.7026C10.087 41.6653 11.9752 45.974 15.9386 48.0101L16.481 48.2887L17.0555 48.0842C20.1887 46.9683 23.0758 45.1778 25.6366 42.7617C27.2919 41.2 28.7152 39.4723 29.8849 37.6262C30.2355 37.6791 30.5942 37.7068 30.9594 37.7068C34.597 37.7068 37.6092 34.9874 38.0753 31.4752C39.5643 31.4207 41.1458 31.4202 42.6434 31.4746C43.1092 34.9871 46.1216 37.7068 49.7593 37.7068C51.2802 37.7068 52.6911 37.2301 53.8533 36.4204C54.6602 38.0721 54.9614 39.9306 54.6401 41.782ZM12.0884 26.2062C14.4935 26.2062 16.45 28.1628 16.45 30.5678C16.45 31.4316 16.1965 32.2372 15.7613 32.9155C15.0361 34.0462 13.8041 34.8212 12.3881 34.9179C12.289 34.9247 12.1892 34.9293 12.0884 34.9293C11.5525 34.9293 11.0391 34.8315 10.5644 34.6541C9.60411 34.2947 8.80396 33.6057 8.30065 32.726C7.9363 32.089 7.72686 31.3526 7.72686 30.5678C7.72686 28.1628 9.68346 26.2062 12.0884 26.2062ZM26.5979 30.5264C26.5979 28.3413 28.2131 26.5269 30.3121 26.2131C30.5234 26.1814 30.7396 26.1648 30.9594 26.1648C32.3576 26.1648 33.6024 26.8272 34.4009 27.8536C34.5993 28.1086 34.7714 28.3853 34.91 28.6807C35.1731 29.2416 35.321 29.8669 35.321 30.5264C35.321 30.8751 35.2787 31.214 35.201 31.5392C34.776 33.3186 33.2587 34.6786 31.3995 34.8658C31.2549 34.8803 31.108 34.8879 30.9594 34.8879C30.0887 34.8879 29.2774 34.6304 28.5956 34.189C27.3948 33.4111 26.5979 32.0604 26.5979 30.5264ZM44.8014 25.34C43.8671 26.234 43.1722 27.3762 42.8262 28.6607C41.2111 28.6001 39.4985 28.6001 37.8927 28.6607C37.5238 27.2917 36.7588 26.0839 35.7297 25.1665L40.2428 16.0407L44.8014 25.34ZM25.3607 2.81891H55.1129L48.0858 23.5443C47.7813 23.6175 47.4841 23.7095 47.1958 23.8202L40.2539 9.65912L33.2925 23.7356C32.9916 23.632 32.6815 23.5486 32.3641 23.4853L25.3607 2.81891ZM54.1208 30.5264C54.1208 30.9637 54.0554 31.3858 53.9352 31.7844C53.6488 32.7327 53.0478 33.5453 52.2542 34.1009C51.5466 34.5962 50.6866 34.8879 49.7593 34.8879C47.7455 34.8879 46.0466 33.5155 45.5473 31.657C45.4503 31.2962 45.3977 30.9173 45.3977 30.5264C45.3977 29.9302 45.5182 29.3617 45.7357 28.8438C45.8478 28.5768 45.9876 28.3245 46.1481 28.0874C46.933 26.929 48.2577 26.1648 49.7593 26.1648C49.897 26.1648 50.0329 26.172 50.1673 26.1845C52.3817 26.3909 54.1208 28.259 54.1208 30.5264ZM56.9397 30.5264C56.9397 27.0208 54.414 24.0959 51.0873 23.4709L59.0452 0H21.429L29.399 23.5187C26.1877 24.2333 23.779 27.1029 23.779 30.5264C23.779 33.0969 25.1375 35.355 27.1735 36.6238C26.1942 38.0829 25.0328 39.4558 23.7022 40.7113C21.5915 42.7025 19.2403 44.2124 16.7054 45.206C14.1521 43.6021 13.0728 40.5776 14.1937 37.9426L14.2815 37.7361C14.3365 37.6072 14.3915 37.4779 14.4463 37.3487C17.2507 36.3705 19.2689 33.7013 19.2689 30.5678C19.2689 26.6084 16.0477 23.3873 12.0884 23.3873C8.12912 23.3873 4.90795 26.6084 4.90795 30.5678C4.90795 32.5663 5.72938 34.376 7.05145 35.679C6.81184 36.1897 6.55955 36.7091 6.30063 37.2408C5.09189 39.7236 3.7219 42.5376 3.20378 45.6623C2.17474 51.8682 3.83465 56.829 7.87767 59.6311C10.3311 61.3315 12.8225 62 15.3297 62C20.0508 62 24.8265 59.6282 29.4974 57.3081C32.8614 55.6373 36.3399 53.9095 39.7758 53.0621C41.0542 52.7468 42.3698 52.5571 43.7626 52.3562C46.5244 51.9578 49.3804 51.546 51.9101 50.0808C54.8425 48.3823 56.8498 45.5332 57.4174 42.2643C57.9047 39.4579 57.3183 36.647 55.8881 34.2634C56.5548 33.174 56.9397 31.8944 56.9397 30.5264Z" fill="white"/>
</svg>
