<svg width="62" height="60" viewBox="0 0 62 60" fill="none" xmlns="http://www.w3.org/2000/svg">
<path d="M28.9697 0.0159144C28.8364 0.0274744 28.4121 0.0679347 28.0303 0.0968349C19.2242 0.85402 10.9758 5.38557 5.75152 12.3505C2.84242 16.2231 0.981818 20.616 0.278788 25.2689C0.030303 26.8931 0 27.3728 0 29.575C0 31.7772 0.030303 32.257 0.278788 33.8811C1.96364 44.9846 10.2485 54.3136 21.4848 57.77C23.497 58.3885 25.6182 58.8104 28.0303 59.0648C28.9697 59.163 33.0303 59.163 33.9697 59.0648C38.1333 58.6255 41.6606 57.6429 45.1394 55.9493C45.6727 55.6892 45.7758 55.6199 45.703 55.5621C45.6545 55.5274 43.3818 52.62 40.6545 49.1058L35.697 42.7188L29.4848 33.9505C26.0667 29.13 23.2545 25.188 23.2303 25.188C23.2061 25.1822 23.1818 29.0779 23.1697 33.8349C23.1515 42.1639 23.1455 42.4992 23.0364 42.6957C22.8788 42.9789 22.7576 43.0945 22.503 43.2217C22.3091 43.3142 22.1394 43.3315 21.2242 43.3315H20.1758L19.897 43.1639C19.7152 43.0541 19.5818 42.9096 19.4909 42.7419L19.3636 42.4818L19.3758 30.8929L19.3939 19.2981L19.5818 19.0727C19.6788 18.9513 19.8848 18.7953 20.0303 18.7201C20.2788 18.6045 20.3758 18.593 21.4242 18.593C22.6606 18.593 22.8667 18.6392 23.1879 18.9744C23.2788 19.0669 26.6424 23.899 30.6667 29.7195C34.6909 35.54 40.1939 43.4876 42.897 47.3891L47.8061 54.4812L48.0545 54.3251C50.2545 52.961 52.5818 51.019 54.4242 48.9959C58.3455 44.7014 60.8727 39.4647 61.7212 33.8811C61.9697 32.257 62 31.7772 62 29.575C62 27.3728 61.9697 26.8931 61.7212 25.2689C60.0364 14.1654 51.7515 4.83646 40.5151 1.38C38.5333 0.767319 36.4242 0.345376 34.0606 0.0910548C33.4788 0.0332545 29.4727 -0.0303259 28.9697 0.0159144ZM41.6606 17.8993C41.9515 18.0381 42.1879 18.3039 42.2727 18.5814C42.3212 18.7317 42.3333 21.9454 42.3212 29.1878L42.303 39.5803L40.3818 36.7712L38.4545 33.9621V26.4076C38.4545 21.5234 38.4788 18.7779 38.5152 18.645C38.6121 18.3213 38.8242 18.067 39.1152 17.9167C39.3636 17.7953 39.4545 17.7837 40.4061 17.7837C41.303 17.7837 41.4606 17.7953 41.6606 17.8993Z" fill="black"/>
</svg>
