<svg width="62" height="62" viewBox="0 0 62 62" fill="none" xmlns="http://www.w3.org/2000/svg">
<g clip-path="url(#clip0_2072_394)">
<path fill-rule="evenodd" clip-rule="evenodd" d="M31.0549 61.1611C30.2221 61.1611 29.4448 60.939 28.723 60.5504L21.3387 56.1642C20.2283 55.5535 20.7835 55.3314 21.1166 55.2203C22.6157 54.7207 22.8933 54.6096 24.4479 53.7213C24.6145 53.6102 24.8365 53.6658 25.0031 53.7768L30.6662 57.1636C30.8883 57.2746 31.1659 57.2746 31.3325 57.1636L53.4853 44.3382C53.7074 44.2272 53.8185 44.0051 53.8185 43.7275V18.1324C53.8185 17.8548 53.7074 17.6327 53.4853 17.5216L31.3325 4.75183C31.1104 4.64079 30.8328 4.64079 30.6662 4.75183L8.51339 17.5216C8.29131 17.6327 8.18027 17.9103 8.18027 18.1324V43.7275C8.18027 43.9496 8.29131 44.2272 8.51339 44.3382L14.5652 47.8361C17.8409 49.5017 19.8952 47.5585 19.8952 45.6152V20.3532C19.8952 20.0201 20.1728 19.687 20.5614 19.687H23.393C23.7261 19.687 24.0593 19.9646 24.0593 20.3532V45.6152C24.0593 50.0014 21.6719 52.5553 17.5078 52.5553C16.2308 52.5553 15.2314 52.5553 12.3999 51.1673L6.57016 47.8361C5.12662 47.0033 4.23828 45.4487 4.23828 43.783V18.1879C4.23828 16.5223 5.12662 14.9677 6.57016 14.1349L28.723 1.30953C30.111 0.532239 31.9987 0.532239 33.3868 1.30953L55.5396 14.1349C56.9832 14.9677 57.8715 16.5223 57.8715 18.1879V43.783C57.8715 45.4487 56.9832 47.0033 55.5396 47.8361L33.3868 60.6614C32.665 60.9945 31.8322 61.1611 31.0549 61.1611ZM37.884 43.561C28.1678 43.561 26.169 39.1193 26.169 35.3439C26.169 35.0107 26.4467 34.6776 26.8353 34.6776H29.7224C30.0555 34.6776 30.3331 34.8997 30.3331 35.2328C30.7773 38.1754 32.0543 39.619 37.9395 39.619C42.6032 39.619 44.602 38.5641 44.602 36.0656C44.602 34.6221 44.0468 33.5672 36.7735 32.8454C30.7218 32.2347 26.9463 30.9022 26.9463 26.0719C26.9463 21.5747 30.7218 18.9097 37.0511 18.9097C44.1578 18.9097 47.6556 21.3526 48.0998 26.6826C48.0998 26.8492 48.0443 27.0157 47.9333 27.1823C47.8222 27.2933 47.6556 27.4044 47.4891 27.4044H44.602C44.3244 27.4044 44.0468 27.1823 43.9913 26.9047C43.325 23.851 41.6039 22.8517 37.0511 22.8517C31.9432 22.8517 31.3325 24.6283 31.3325 25.9608C31.3325 27.5709 32.0543 28.0706 38.9389 28.959C45.7679 29.8473 48.9881 31.1243 48.9881 35.8991C48.9326 40.7849 44.9351 43.561 37.884 43.561Z" fill="#539E43"/>
</g>
<defs>
<clipPath id="clip0_2072_394">
<rect width="62" height="62" fill="white"/>
</clipPath>
</defs>
</svg>
