<svg width="62" height="62" viewBox="0 0 62 62" fill="none" xmlns="http://www.w3.org/2000/svg">
<g clip-path="url(#clip0_2072_385)">
<g clip-path="url(#clip1_2072_385)">
<path fill-rule="evenodd" clip-rule="evenodd" d="M60.1798 36.9826C59.8278 35.9166 58.9057 35.174 57.713 34.9956C57.1507 34.9117 56.5066 34.9475 55.7446 35.1047C54.4163 35.3787 53.4308 35.483 52.7116 35.5033C55.4262 30.9198 57.6336 25.693 58.9044 20.7728C60.9592 12.8172 59.8612 9.19296 58.5781 7.55349C55.1822 3.21449 50.2278 0.883359 44.2504 0.811901C41.062 0.772986 38.2627 1.40255 36.8026 1.85516C35.443 1.61543 33.9811 1.48146 32.4471 1.45665C29.5721 1.41082 27.0316 2.03753 24.8609 3.32567C23.6589 2.91944 21.7303 2.34655 19.5029 1.98086C14.2641 1.12078 10.042 1.79102 6.95369 3.97273C3.21402 6.61437 1.48031 11.2039 1.80099 17.6141C1.90269 19.6494 3.04127 25.8416 4.83382 31.7143C5.86406 35.0896 6.96264 37.8927 8.09905 40.0462C9.71059 43.0999 11.4349 44.8983 13.3708 45.544C14.456 45.9057 16.4274 46.1587 18.501 44.432C18.7638 44.7501 19.1143 45.0665 19.5798 45.3602C20.1707 45.7329 20.8934 46.0375 21.615 46.2179C24.2161 46.8682 26.6525 46.7055 28.731 45.7942C28.7438 46.1638 28.7537 46.517 28.7621 46.822C28.7759 47.3168 28.7895 47.8018 28.8076 48.2554C28.9307 51.3228 29.1394 53.7077 29.7577 55.3763C29.7916 55.4683 29.8373 55.6081 29.8856 55.7563C30.1939 56.7008 30.7099 58.2818 32.022 59.5202C33.3811 60.8028 35.0247 61.1963 36.5301 61.1962C37.2851 61.1962 38.0055 61.0972 38.6372 60.9617C40.8896 60.4791 43.4474 59.7437 45.2977 57.1091C47.047 54.6184 47.8975 50.867 48.0514 44.956C48.0713 44.7889 48.0897 44.6293 48.1075 44.4772C48.1194 44.3745 48.1316 44.2696 48.144 44.1649L48.5562 44.2011L48.6624 44.2083C50.9563 44.3128 53.7612 43.8263 55.4838 43.0262C56.845 42.3945 61.2068 40.0918 60.1798 36.9826Z" fill="black"/>
<path fill-rule="evenodd" clip-rule="evenodd" d="M56.2576 37.5874C49.437 38.9943 48.9681 36.685 48.9681 36.685C56.1696 25.9991 59.1801 12.435 56.5821 9.11524C49.4946 0.0596085 37.2258 4.34234 37.0211 4.45353L36.9552 4.46532C35.6077 4.18559 34.0996 4.01895 32.4047 3.99129C29.3184 3.94071 26.9774 4.80037 25.201 6.1475C25.201 6.1475 3.31463 -2.86881 4.33253 17.4872C4.54908 21.8178 10.5395 50.2544 17.6846 41.6652C20.2961 38.5245 22.8194 35.8689 22.8194 35.8689C24.0727 36.7014 25.573 37.1261 27.1459 36.9735L27.2681 36.8698C27.2301 37.2598 27.2475 37.6412 27.317 38.0927C25.4764 40.1493 26.0172 40.5104 22.3376 41.2678C18.6144 42.0351 20.8016 43.4012 22.2297 43.7582C23.961 44.1912 27.9663 44.8045 30.6726 41.016L30.5646 41.4483C31.2859 42.0259 31.7923 45.2057 31.7074 48.0882C31.6226 50.9707 31.5659 52.9497 32.1341 54.4955C32.7024 56.0413 33.2688 59.5193 38.106 58.4828C42.1479 57.6166 44.2424 55.372 44.5338 51.6278C44.7406 48.966 45.2085 49.3595 45.2381 46.9797L45.6134 45.853C46.0462 42.2447 45.6821 41.0807 48.1723 41.6221L48.7775 41.6752C50.6103 41.7586 53.0091 41.3805 54.417 40.7261C57.4486 39.3192 59.2465 36.9701 56.2574 37.5874H56.2576Z" fill="#336791"/>
<path fill-rule="evenodd" clip-rule="evenodd" d="M26.482 19.4239C25.8675 19.3383 25.3108 19.4175 25.0292 19.6307C24.8706 19.7507 24.8217 19.8897 24.8085 19.9854C24.7732 20.2388 24.9508 20.519 25.0598 20.6635C25.3684 21.0726 25.8194 21.3538 26.2658 21.4158C26.3304 21.4247 26.3947 21.4291 26.4587 21.4291C27.2031 21.4291 27.8797 20.8495 27.9394 20.4217C28.014 19.886 27.2362 19.5288 26.482 19.4239Z" fill="white"/>
<path fill-rule="evenodd" clip-rule="evenodd" d="M46.8442 19.4409H46.844C46.7854 19.0209 46.038 18.9012 45.3289 18.9998C44.6208 19.0985 43.934 19.4181 43.9914 19.839C44.0375 20.1663 44.6283 20.7251 45.3279 20.7249C45.3869 20.7249 45.4466 20.721 45.5067 20.7126C45.9736 20.6479 46.3163 20.3514 46.479 20.1804C46.727 19.9201 46.8703 19.6296 46.8442 19.4409Z" fill="white"/>
<path fill-rule="evenodd" clip-rule="evenodd" d="M58.5274 37.4274C58.2673 36.641 57.4303 36.3878 56.0395 36.6751C51.9101 37.5273 50.4313 36.937 49.9456 36.5794C53.1554 31.6896 55.7958 25.7792 57.2203 20.2645C57.8951 17.6523 58.2678 15.2264 58.2982 13.2491C58.3318 11.0786 57.9624 9.48383 57.1999 8.50959C54.1261 4.58198 49.6151 2.47526 44.1543 2.41736C40.4002 2.37519 37.2284 3.33601 36.6135 3.60611C35.3186 3.28408 33.9069 3.08638 32.3702 3.06116C29.5519 3.0156 27.116 3.69032 25.099 5.06551C24.223 4.73954 21.9588 3.96232 19.1901 3.51635C14.4031 2.7455 10.5993 3.3295 7.88471 5.25263C4.64565 7.54742 3.15032 11.6494 3.44008 17.4444C3.53758 19.3942 4.64836 25.392 6.40159 31.136C8.70926 38.696 11.2176 42.9759 13.8571 43.8562C14.166 43.9592 14.5223 44.0314 14.915 44.0314C15.8778 44.0314 17.0582 43.5973 18.2864 42.1209C20.3264 39.6666 22.2311 37.6101 22.9332 36.8628C23.9708 37.4198 25.1104 37.7307 26.2764 37.7619C26.2784 37.7924 26.2815 37.8229 26.2843 37.8533C26.0504 38.1307 25.8585 38.3739 25.695 38.5815C24.8872 39.6068 24.7191 39.8202 22.1189 40.3557C21.3794 40.5082 19.4148 40.9131 19.3862 42.2901C19.3549 43.7945 21.7081 44.4264 21.9763 44.4933C22.9107 44.7272 23.8107 44.8426 24.6692 44.8426C26.7571 44.8425 28.5942 44.1564 30.0626 42.8288C30.0173 48.1922 30.241 53.4772 30.8849 55.0876C31.4123 56.4057 32.7008 59.6274 36.7709 59.6271C37.368 59.6271 38.0255 59.5577 38.7486 59.4027C42.9962 58.4919 44.8407 56.6146 45.5543 52.4757C45.9361 50.2638 46.5915 44.9816 46.8995 42.1484C47.55 42.3512 48.3874 42.4441 49.2926 42.444C51.1806 42.444 53.3591 42.0429 54.7253 41.4087C56.26 40.696 59.0296 38.9469 58.5274 37.4274ZM48.412 18.2816C48.3979 19.118 48.2828 19.8774 48.1607 20.67C48.0295 21.5225 47.8936 22.4039 47.8594 23.4739C47.8257 24.5151 47.9557 25.5977 48.0815 26.6444C48.3356 28.7589 48.5964 30.9359 47.5869 33.0839C47.43 32.8053 47.2786 32.5013 47.1397 32.1646C47.0143 31.8605 46.7419 31.3719 46.3648 30.6957C44.8971 28.0638 41.4604 21.9006 43.2197 19.3856C43.7436 18.6368 45.0735 17.8673 48.412 18.2816ZM44.3655 4.11118C49.2582 4.21925 53.1285 6.04963 55.8688 9.55121C57.9705 12.2371 55.6562 24.4581 48.9564 35.0012C48.8902 34.9171 48.8228 34.8323 48.7531 34.7452C48.7253 34.7104 48.697 34.675 48.6684 34.6392C50.3997 31.7799 50.0611 28.951 49.7598 26.4428C49.636 25.4135 49.5191 24.4413 49.5488 23.5282C49.5796 22.5601 49.7076 21.7301 49.8312 20.9274C49.9835 19.9381 50.1382 18.9146 50.0955 17.708C50.1274 17.5815 50.1403 17.4319 50.1236 17.2544C50.0146 16.0973 48.6936 12.6346 46.001 9.50009C44.5283 7.78591 42.3804 5.86739 39.4477 4.57342C40.7092 4.312 42.4342 4.0682 44.3655 4.11118ZM16.9868 41.0402C15.6337 42.667 14.6992 42.3553 14.3919 42.2529C12.3896 41.585 10.0665 37.3532 8.01817 30.6426C6.24583 24.836 5.21002 18.9972 5.12813 17.3599C4.86928 12.1819 6.12447 8.57304 8.85899 6.63377C13.3092 3.47783 20.6258 5.36679 23.5658 6.32489C23.5235 6.36652 23.4795 6.40557 23.4376 6.44788C18.6133 11.3202 18.7278 19.6445 18.7396 20.1533C18.7392 20.3496 18.7556 20.6276 18.7782 21.01C18.8612 22.41 19.0156 25.0158 18.603 27.9669C18.2194 30.7091 19.0647 33.3932 20.9218 35.3308C21.1141 35.5314 21.3148 35.7197 21.5221 35.8969C20.6954 36.7822 18.8989 38.7398 16.9868 41.0402ZM22.1422 34.1614C20.6453 32.5997 19.9656 30.4274 20.2769 28.2009C20.7127 25.0835 20.5518 22.3685 20.4654 20.9099C20.4533 20.7058 20.4426 20.527 20.4363 20.3858C21.1411 19.761 24.4071 18.0109 26.7362 18.5446C27.7993 18.7881 28.4467 19.5118 28.716 20.7568C30.1097 27.202 28.9006 29.8884 27.929 32.047C27.7288 32.4918 27.5396 32.9121 27.378 33.3471L27.2528 33.6833C26.9358 34.5333 26.6409 35.3235 26.4581 36.0741C24.8671 36.0692 23.3191 35.3896 22.1422 34.1614ZM22.3864 42.8536C21.9218 42.7375 21.5039 42.5359 21.2588 42.3687C21.4635 42.2723 21.828 42.1413 22.46 42.0111C25.5189 41.3813 25.9911 40.937 27.0227 39.6271C27.2593 39.3269 27.5274 38.9865 27.8987 38.5718C27.8988 38.5715 27.8989 38.5714 27.8991 38.5713C28.4522 37.9521 28.705 38.0571 29.1638 38.2473C29.5356 38.4012 29.8976 38.8671 30.0444 39.3799C30.1139 39.6221 30.192 40.0819 29.9366 40.4395C27.7816 43.4567 24.6416 43.4179 22.3864 42.8536ZM38.3943 57.7501C34.6523 58.5518 33.3274 56.6425 32.4543 54.4599C31.8908 53.0507 31.6139 46.6963 31.8104 39.6792C31.813 39.5858 31.7997 39.4956 31.7739 39.4109C31.7516 39.2472 31.7171 39.0816 31.6694 38.915C31.377 37.894 30.665 37.0399 29.8108 36.6858C29.4714 36.5452 28.8484 36.2872 28.0997 36.4786C28.2595 35.8209 28.5364 35.0782 28.8364 34.2739L28.9624 33.9355C29.1042 33.554 29.282 33.1589 29.4702 32.7407C30.4869 30.482 31.8793 27.3884 30.3681 20.3995C29.802 17.7819 27.9118 16.5036 25.0463 16.8005C23.3283 16.9782 21.7568 17.6714 20.9729 18.0688C20.8044 18.1542 20.6502 18.2367 20.5062 18.3171C20.7249 15.6795 21.5517 10.7505 24.6437 7.63201C26.5905 5.66862 29.1833 4.69899 32.3423 4.75119C38.5668 4.85316 42.5583 8.04747 44.8109 10.7093C46.7519 13.0032 47.803 15.3137 48.2225 16.5598C45.068 16.2391 42.9225 16.8619 41.8347 18.4167C39.4686 21.799 43.1292 28.3639 44.8886 31.5189C45.2111 32.0972 45.4897 32.5969 45.5772 32.8092C46.1501 34.1977 46.8918 35.1246 47.4334 35.8014C47.5994 36.0087 47.7604 36.2098 47.8829 36.3854C46.9275 36.6609 45.2113 37.2972 45.3676 40.4784C45.2415 42.0747 44.3444 49.5481 43.8888 52.1885C43.2873 55.6768 42.0037 56.9762 38.3943 57.7501ZM54.0136 39.8757C53.0367 40.3292 51.4017 40.6695 49.8485 40.7424C48.1329 40.8228 47.2597 40.5503 47.0543 40.3827C46.9577 38.4003 47.6958 38.1931 48.4767 37.9738C48.5994 37.9393 48.7191 37.9058 48.8346 37.8654C48.9065 37.9238 48.9851 37.9818 49.0712 38.0387C50.4501 38.9488 52.9095 39.0469 56.3814 38.3303C56.3941 38.3276 56.4069 38.3252 56.4195 38.3226C55.9513 38.7604 55.1499 39.3481 54.0136 39.8757Z" fill="white"/>
</g>
</g>
<defs>
<clipPath id="clip0_2072_385">
<rect width="58.7305" height="60.5469" fill="white" transform="translate(1.69531 0.726562)"/>
</clipPath>
<clipPath id="clip1_2072_385">
<rect width="58.7121" height="60.5469" fill="white" transform="translate(1.69531 0.726562)"/>
</clipPath>
</defs>
</svg>
