<svg width="62" height="62" viewBox="0 0 62 62" fill="none" xmlns="http://www.w3.org/2000/svg">
<path d="M30.7024 0.242188C15.0009 0.242189 15.9814 7.05134 15.9814 7.05134L15.9989 14.1055H30.9825V16.2236H10.0474C10.0474 16.2236 0 15.0841 0 30.9271C-1.11988e-06 46.7701 8.76962 46.2083 8.76962 46.2083H14.0034V38.8565C14.0034 38.8565 13.7213 30.0869 22.633 30.0869H37.4941C37.4941 30.0869 45.8436 30.2219 45.8436 22.0175V8.45167C45.8436 8.45167 47.1113 0.242188 30.7024 0.242188ZM22.4404 4.98584C23.9312 4.98583 25.1361 6.19073 25.1361 7.68149C25.1361 9.17225 23.9312 10.3771 22.4404 10.3771C20.9497 10.3771 19.7448 9.17225 19.7448 7.68149C19.7448 6.19073 20.9497 4.98584 22.4404 4.98584Z" fill="url(#paint0_linear_2072_391)"/>
<path d="M31.1482 61.771C46.8498 61.771 45.8693 54.9618 45.8693 54.9618L45.8518 47.9076H30.8682V45.7896H51.8032C51.8032 45.7896 61.8507 46.9291 61.8507 31.086C61.8507 15.243 53.0811 15.8048 53.0811 15.8048H47.8473V23.1566C47.8473 23.1566 48.1294 31.9262 39.2177 31.9262H24.3566C24.3566 31.9262 16.0071 31.7913 16.0071 39.9957V53.5615C16.0071 53.5615 14.7394 61.771 31.1482 61.771ZM39.4102 57.0273C37.9195 57.0273 36.7146 55.8224 36.7146 54.3317C36.7146 52.8409 37.9195 51.636 39.4102 51.636C40.901 51.636 42.1059 52.8409 42.1059 54.3317C42.1059 55.8224 40.901 57.0273 39.4102 57.0273Z" fill="url(#paint1_linear_2072_391)"/>
<defs>
<linearGradient id="paint0_linear_2072_391" x1="5.94398" y1="5.77653" x2="36.595" y2="36.1217" gradientUnits="userSpaceOnUse">
<stop stop-color="#387EB8"/>
<stop offset="1" stop-color="#366994"/>
</linearGradient>
<linearGradient id="paint1_linear_2072_391" x1="24.7575" y1="25.2623" x2="57.6734" y2="56.3787" gradientUnits="userSpaceOnUse">
<stop stop-color="#FFE052"/>
<stop offset="1" stop-color="#FFC331"/>
</linearGradient>
</defs>
</svg>
