<svg width="62" height="60" viewBox="0 0 62 60" fill="none" xmlns="http://www.w3.org/2000/svg">
<path d="M50.9764 20.2881C50.3333 20.0769 49.6668 19.8771 48.9806 19.6882C49.0934 19.2491 49.1969 18.8157 49.2889 18.3897C50.7998 11.3945 49.8119 5.75912 46.4388 3.90371C43.2044 2.12462 37.9148 3.97961 32.5725 8.41424C32.0588 8.84067 31.5436 9.29215 31.0287 9.76532C30.6856 9.45226 30.343 9.14973 30.0014 8.86035C24.4025 4.11856 18.7905 2.1203 15.4207 3.98108C12.1894 5.76533 11.2325 11.0631 12.5924 17.6926C12.7238 18.3329 12.8773 18.9868 13.0509 19.6517C12.2566 19.8667 11.4898 20.096 10.7562 20.3399C4.1921 22.5228 0 25.9439 0 29.4925C0 33.1576 4.50023 36.8336 11.3372 39.0626C11.8767 39.2385 12.4366 39.4049 13.0136 39.5628C12.8263 40.2818 12.6634 40.9865 12.5266 41.6738C11.2299 48.1881 12.2426 53.3608 15.4653 55.1338C18.7941 56.9648 24.3807 55.0827 29.8206 50.547C30.2506 50.1885 30.6821 49.8083 31.1143 49.4097C31.6746 49.9244 32.234 50.4114 32.7905 50.8683C38.0597 55.1934 43.2639 56.9398 46.4836 55.1619C49.8091 53.3256 50.8898 47.769 49.4867 41.0084C49.3795 40.4921 49.2548 39.9646 49.1148 39.4277C49.5071 39.3171 49.8923 39.2029 50.2678 39.0841C57.3755 36.8379 62 33.2065 62 29.4925C62 25.9311 57.6727 22.4869 50.9764 20.2881ZM49.4348 36.6861C49.0958 36.7931 48.748 36.8966 48.3935 36.9969C47.6088 34.6275 46.5498 32.108 45.2539 29.5048C46.4906 26.9637 47.5086 24.4764 48.2713 22.1224C48.9056 22.2974 49.5211 22.482 50.1143 22.6769C55.8517 24.5608 59.3514 27.3463 59.3514 29.4925C59.3514 31.7787 55.5718 34.7464 49.4348 36.6861ZM46.8884 41.499C47.5089 44.4885 47.5975 47.1913 47.1865 49.3042C46.8172 51.2027 46.0746 52.4685 45.1564 52.9755C43.2025 54.0543 39.0241 52.652 34.5178 48.9532C34.0012 48.5292 33.4809 48.0764 32.9589 47.5973C34.7059 45.7748 36.4519 43.6561 38.1559 41.3031C41.1532 41.0494 43.9849 40.6347 46.5528 40.0685C46.6793 40.5551 46.7916 41.0324 46.8884 41.499ZM21.1372 52.7891C19.2282 53.4321 17.7078 53.4506 16.7887 52.9451C14.833 51.8692 14.02 47.716 15.129 42.1449C15.2561 41.5069 15.4072 40.8515 15.5815 40.1816C18.1213 40.7173 20.9323 41.1028 23.9367 41.3351C25.6522 43.6376 27.4486 45.754 29.259 47.6071C28.8634 47.9713 28.4695 48.318 28.0777 48.6448C25.6722 50.6504 23.2616 52.0734 21.1372 52.7891ZM12.1938 36.6721C9.17063 35.6865 6.67397 34.4055 4.96263 33.0077C3.42489 31.7515 2.64851 30.5044 2.64851 29.4925C2.64851 27.3391 6.01435 24.5924 11.628 22.7255C12.3091 22.499 13.0222 22.2855 13.7621 22.085C14.5379 24.4922 15.5557 27.009 16.7839 29.554C15.5398 32.1368 14.5076 34.6937 13.7242 37.1291C13.1966 36.9845 12.6856 36.8323 12.1938 36.6721ZM15.1917 17.2074C14.0265 11.5275 14.8004 7.24274 16.7477 6.16755C18.8219 5.02216 23.4085 6.65525 28.2427 10.7496C28.5517 11.0112 28.8619 11.2851 29.173 11.5685C27.3716 13.4135 25.5916 15.514 23.8913 17.8029C20.9754 18.0607 18.1842 18.4748 15.6179 19.0293C15.4566 18.4103 15.3137 17.802 15.1917 17.2074ZM41.9357 23.5064C41.3222 22.4956 40.6924 21.5088 40.0503 20.5488C42.0285 20.7874 43.9238 21.104 45.7037 21.4915C45.1693 23.125 44.5033 24.8329 43.7193 26.5838C43.1569 25.5654 42.5621 24.5385 41.9357 23.5064ZM31.0296 13.374C32.2513 14.6365 33.4747 16.046 34.678 17.5753C33.4654 17.5207 32.2378 17.4922 31 17.4922C29.7739 17.4922 28.5553 17.52 27.3502 17.5737C28.5548 16.0586 29.7888 14.651 31.0296 13.374ZM20.0536 23.5239C19.4408 24.5375 18.857 25.5588 18.3034 26.5819C17.5321 24.8372 16.8723 23.1214 16.3333 21.4648C18.1022 21.0872 19.9886 20.7784 21.9542 20.5444C21.3031 21.5132 20.6681 22.5073 20.0536 23.5236V23.5239ZM22.0108 38.6208C19.98 38.4047 18.0652 38.1119 16.2967 37.7447C16.8443 36.0585 17.5187 34.3061 18.3064 32.5238C18.8614 33.5462 19.4475 34.5679 20.0641 35.5837H20.0642C20.6922 36.6186 21.3429 37.6323 22.0108 38.6208ZM31.1029 45.7891C29.8475 44.4972 28.5954 43.0681 27.3725 41.5309C28.5596 41.5753 29.7699 41.5981 31 41.5981C32.2637 41.5981 33.513 41.5709 34.7426 41.5187C33.5353 43.0836 32.3163 44.5149 31.1029 45.7891ZM43.7446 32.4329C44.5733 34.2345 45.2719 35.9777 45.8265 37.6353C44.0289 38.0264 42.088 38.3415 40.0431 38.5756C40.6867 37.6027 41.322 36.5989 41.9463 35.5664C42.5779 34.5217 43.1776 33.4755 43.7446 32.4329ZM39.652 34.3042C38.6829 35.9071 37.6879 37.4372 36.6778 38.8816C34.838 39.0071 32.9372 39.0717 31 39.0717C29.0706 39.0717 27.1938 39.0145 25.3866 38.9026C24.3357 37.4394 23.3191 35.9047 22.3561 34.318H22.3563C21.3959 32.7357 20.5119 31.1399 19.7109 29.5532C20.5117 27.9627 21.3933 26.3652 22.3483 24.7857L22.3481 24.786C23.3055 23.2023 24.3132 21.6751 25.3544 20.2209C27.1982 20.088 29.089 20.0186 30.9999 20.0186H31C32.9195 20.0186 34.8127 20.0885 36.656 20.2226C37.6813 21.6661 38.6821 23.1884 39.6433 24.7723C40.6155 26.374 41.5085 27.9609 42.3161 29.5173C41.5109 31.1004 40.6199 32.7032 39.652 34.3042ZM45.1158 6.09239C47.192 7.23442 47.9994 11.8402 46.6949 17.8798C46.6117 18.2652 46.518 18.6577 46.4163 19.0555C43.844 18.4894 41.0508 18.0682 38.1264 17.8065C36.4228 15.4924 34.6574 13.3887 32.8854 11.5674C33.3618 11.1302 33.8376 10.7133 34.3113 10.32C38.8886 6.5204 43.1667 5.02026 45.1158 6.09239ZM31 24.2117C34.0576 24.2117 36.5364 26.5759 36.5364 29.4925C36.5364 32.409 34.0576 34.7734 31 34.7734C27.9424 34.7734 25.4636 32.409 25.4636 29.4925C25.4636 26.5759 27.9424 24.2117 31 24.2117Z" fill="#00D8FF"/>
</svg>
