<svg width="62" height="60" viewBox="0 0 62 60" fill="none" xmlns="http://www.w3.org/2000/svg">
<path d="M42.212 39.8447C44.3569 39.6364 45.9842 37.9021 45.9102 35.8206C45.8364 33.7394 43.9871 32.0743 41.7681 32.0743H41.6203C39.3271 32.1437 37.552 33.9475 37.626 36.0981C37.7 37.1388 38.1437 38.0407 38.8094 38.6651C36.2946 43.3135 32.4484 46.7129 26.679 49.5574C22.7587 51.5 18.6907 52.1938 14.6226 51.7083C11.294 51.2919 8.7052 49.9045 7.0777 47.6148C4.71092 44.2154 4.48909 40.5383 6.48623 36.8613C7.89168 34.2249 10.1104 32.2823 11.5159 31.311C11.22 30.4092 10.7761 28.8829 10.5543 27.773C-0.170896 35.0576 0.938701 44.9092 4.19325 49.5574C6.63404 53.0265 11.5899 55.1771 17.0634 55.1771C18.5426 55.1771 20.0219 55.0383 21.5013 54.6916C30.9691 52.957 38.1439 47.6842 42.212 39.8447ZM55.2302 31.2418C49.6086 25.0672 41.3245 21.6677 31.8567 21.6677H30.6733C30.0076 20.4189 28.6021 19.5863 27.0489 19.5863H26.9008C24.6081 19.6557 22.833 21.4595 22.9068 23.6103C22.9808 25.6915 24.8299 27.3567 27.0489 27.3567H27.1967C28.8239 27.2872 30.2294 26.3159 30.8211 24.9977H32.1525C37.7741 24.9977 43.0995 26.524 47.9076 29.5073C51.6058 31.7968 54.2686 34.7801 55.7479 38.3876C57.0053 41.3015 56.9312 44.146 55.5998 46.5743C53.5289 50.2512 50.0525 52.2632 45.4665 52.2632C42.5078 52.2632 39.6972 51.4306 38.2177 50.8062C37.4042 51.5 35.9247 52.6099 34.8892 53.3039C38.0699 54.6914 41.3245 55.4546 44.431 55.4546C51.5317 55.4546 56.7834 51.7775 58.7806 48.1006C60.9255 44.0765 60.7775 37.1388 55.2302 31.2418ZM17.6551 41.0238C17.7291 43.1052 19.5782 44.7701 21.7972 44.7701H21.9452C24.2382 44.7009 26.0133 42.897 25.9393 40.7463C25.8655 38.6649 24.0161 37 21.7972 37H21.6494C21.5013 37 21.2793 37 21.1317 37.0692C18.099 32.3516 16.8416 27.2178 17.2854 21.6675C17.5811 17.5048 19.0605 13.8971 21.6494 10.9138C23.7943 8.34685 27.9364 7.09807 30.7473 7.02886C38.5876 6.89001 41.9159 16.0478 42.138 19.7249C43.0995 19.933 44.7268 20.4187 45.8364 20.7656C44.9486 9.52663 37.552 3.69885 30.4514 3.69885C23.7943 3.69885 17.6551 8.20843 15.2141 14.8687C11.8117 23.7489 14.0307 32.2823 18.1728 39.012C17.8031 39.4975 17.5811 40.2608 17.6551 41.024V41.0238Z" fill="#764ABC"/>
</svg>
