<svg width="62" height="62" viewBox="0 0 62 62" fill="none" xmlns="http://www.w3.org/2000/svg">
<path fill-rule="evenodd" clip-rule="evenodd" d="M20.8583 37.7218C19.8974 38.3228 18.4496 39.2963 17.3296 40.3551C15.4909 42.0915 15.1061 44.5002 16.0761 45.0629C16.9734 45.583 19.0681 44.9641 20.5673 43.3289C22.1407 41.6121 22.7896 39.4358 22.1194 36.9651C22.0407 37.012 21.9634 37.0591 21.8876 37.1029L21.8892 37.1062L21.7876 37.1639C21.3964 37.3974 21.0767 37.59 20.8583 37.7218ZM47.8608 36.9424C47.3165 38.1252 47.2892 38.5059 47.4545 38.6243C48.2443 38.3405 49.5509 37.6567 49.5612 35.8244C49.5629 35.55 49.5023 35.2555 49.4052 34.9478C48.5609 35.6955 48.0742 36.4782 47.8608 36.9424ZM56.3353 33.366C54.2254 33.1201 52.5791 33.416 51.3014 33.9483C51.538 34.5641 51.7198 35.2055 51.7455 35.8517C51.8048 37.2699 50.8286 38.3195 49.8113 39.0688C49.2172 39.5056 48.585 39.7968 48.0544 39.9726C47.6301 40.1516 47.0662 40.3365 46.6659 40.2549C45.7836 40.0755 45.3139 39.2917 45.9142 37.5627C46.2384 36.627 47.1737 35.2026 48.6834 33.9758C48.3393 33.2674 47.9558 32.5456 47.7603 31.8825C47.3751 30.5752 47.2588 29.785 47.2588 29.785C47.2588 29.785 46.0144 32.365 44.409 34.7112C44.3164 34.8476 44.224 34.9813 44.1314 35.1146C44.4468 35.8474 44.6952 36.6223 44.7288 37.4036C44.788 38.8216 44.174 39.8939 43.1553 40.6415C42.6037 41.0482 42.0154 41.329 41.5106 41.5078C41.1878 41.6487 40.5313 41.8806 39.5977 41.943C39.087 41.9779 38.5958 41.9463 38.3216 41.7384C37.9441 41.4532 37.8986 41.1013 38.0941 40.6204C38.2594 40.2123 39.4962 38.8005 40.5331 37.5644C40.8195 37.223 41.0923 36.8742 41.3364 36.5512L41.3304 36.5374C41.3304 36.5374 41.5182 36.295 41.823 35.8717C41.444 35.0557 40.9636 34.2062 40.7377 33.4358C40.3525 32.1286 40.236 31.3382 40.236 31.3382C40.236 31.3382 38.9746 34.572 37.6606 37.1534C36.6437 39.1526 35.9644 40.3642 35.6584 40.8951L35.6553 40.9164C35.6553 40.9164 35.6096 40.9938 35.5309 41.1152L35.472 41.2135L35.4703 41.2044C35.1292 41.7082 34.3638 42.6954 33.6029 42.6954C31.5141 42.6954 32.281 38.4532 32.281 38.4532C32.281 38.4532 31.6704 40.0245 30.982 41.3728C30.4214 42.4724 29.9106 43.4039 28.7934 43.4039C28.4721 43.4039 27.9627 43.3946 27.5397 42.9925C26.5803 42.081 25.8467 39.7664 25.9905 37.9737C26.1133 36.4495 26.3482 35.3938 26.6696 34.5129C26.0965 34.8251 25.4342 35.1954 24.7597 35.5913L23.7228 36.2024L23.7563 36.2631C24.6141 37.9225 24.843 41.558 22.9725 44.3487C21.1021 47.1409 17.6204 48.8397 14.2281 47.8964C13.1335 47.5914 11.4799 45.327 12.9062 42.1707C14.1642 39.3874 19.1921 36.756 20.5171 36.0993L20.8808 35.899C18.2391 33.5875 11.6422 30.4692 10.7176 25.6794C10.4568 24.3311 11.089 21.1066 15.0481 17.3998C18.3781 14.283 23.0105 11.8956 27.2897 10.3743C34.4789 7.81871 42.0747 9.32618 43.2433 13.9098C44.3922 18.4175 40.4817 23.8095 35.4734 25.7478C31.0019 27.4783 27.3048 27.2038 25.7859 26.705C24.0594 26.1378 23.0469 24.9985 22.7999 24.3554C22.7028 24.1038 22.5358 23.6807 22.7999 23.5351C22.9619 23.4456 23.027 23.4669 23.4606 23.9461C23.873 24.4011 25.5311 25.6222 28.681 25.2686C36.9468 24.342 41.9259 17.9156 40.3525 14.4574C39.2507 12.0367 32.8798 10.9446 24.9203 14.9139C15.2041 19.7582 14.6767 23.7518 14.5934 25.2686C14.3659 29.441 19.7393 31.6357 22.6468 34.7387L22.7588 34.8617C23.3029 34.5614 23.8776 34.2444 24.4413 33.9351C25.9072 33.1296 27.2897 32.3741 27.9338 32.0222C28.9571 30.5347 31.0335 28.8934 32.5327 28.8934C34.9291 28.8934 34.1061 32.3379 34.1061 32.3379C34.1061 32.3379 34.1546 32.1803 34.2197 32.1788C34.2879 32.1769 34.5518 31.725 35.2916 31.9949C36.0525 32.2741 35.8795 32.808 35.8843 32.8626C35.8933 32.9686 34.9853 36.0309 34.608 37.995C34.4274 38.9324 34.532 39.6151 34.5853 39.6151C34.6595 39.6151 34.8111 39.3769 34.9521 39.1206L34.949 39.113C34.949 39.113 35.055 38.9189 35.2325 38.5701L35.2674 38.4972L35.2689 38.5005C35.4782 38.0909 35.772 37.4887 36.1116 36.7426C36.777 35.276 39.3158 29.6139 39.5311 28.9876C39.7462 28.3613 39.8584 27.7136 39.9647 27.4359C40.0692 27.1584 40.9667 26.949 42.0154 26.9567C43.0643 26.9643 43.1707 27.4117 43.178 27.5043C43.1856 27.5967 42.6793 28.839 42.5626 29.717C42.4475 30.5953 42.5583 31.0334 42.6537 31.7707C42.7159 32.2528 43.0174 32.8642 43.3739 33.5573C44.4592 31.7827 46.3688 28.3883 46.5523 27.4373C46.6779 26.7868 46.8796 26.1634 46.9858 25.8857C47.0918 25.6081 47.9878 25.399 49.0366 25.4064C50.0855 25.4141 50.1915 25.8615 50.1991 25.954C50.2068 26.0466 49.6989 27.2888 49.5838 28.167C49.4685 29.0436 49.5794 29.4835 49.6747 30.2206C49.7567 30.8515 50.2446 31.6994 50.7284 32.6638C52.0484 32.0131 53.6022 31.5764 55.4213 31.5673C56.1745 31.563 57.0492 31.6386 57.5009 31.7796V17.2692C57.5009 16.2455 56.9763 15.3021 56.0898 14.7911L32.4192 1.10999C31.5342 0.598753 30.4503 0.598753 29.5651 1.10999L5.95984 14.7845C5.07457 15.2957 4.60156 16.2407 4.60156 17.2628V44.6368C4.60156 45.6589 5.07747 46.6038 5.96128 47.1149L29.6045 60.8001C30.4896 61.313 31.5629 61.313 32.448 60.8001L56.1019 47.1149C56.987 46.6022 57.5026 45.6586 57.5026 44.6368V33.5739C57.2023 33.4854 56.7628 33.4158 56.3353 33.366ZM30.87 31.9325C30.3623 32.5012 29.4969 33.9677 29.0921 35.1952C28.2872 37.6324 28.6358 40.1092 29.2057 40.258C29.8711 40.4322 30.9626 37.1744 31.4852 35.9003C31.8127 35.1024 33.0861 31.5611 32.8071 31.0879C32.5893 30.7178 31.6871 31.0166 30.87 31.9325ZM40.0787 40.147C40.0787 40.147 39.9182 40.2989 39.9876 40.3413C40.0816 40.3975 40.2848 40.3245 40.5061 40.2092C41.1322 39.8151 42.5372 38.8321 42.5403 37.3776C42.5403 37.3352 42.5386 37.2943 42.5357 37.2503C42.2099 37.678 41.9096 38.0587 41.6505 38.3817C41.2078 38.9322 40.0787 40.147 40.0787 40.147Z" fill="#8CC84B"/>
</svg>
