<svg width="62" height="63" viewBox="0 0 62 63" fill="none" xmlns="http://www.w3.org/2000/svg">
<g clip-path="url(#clip0_2072_420)">
<path fill-rule="evenodd" clip-rule="evenodd" d="M22.6773 17.2955H6.18473C2.76893 17.2955 0 20.0645 0 23.4803C0 26.8961 2.76893 29.665 6.18473 29.665H22.6773C26.0931 29.665 28.8621 26.8961 28.8621 23.4803C28.8621 20.0645 26.0931 17.2955 22.6773 17.2955Z" fill="#36C5F0"/>
<path fill-rule="evenodd" clip-rule="evenodd" d="M45.3546 23.4802V6.98759C45.3546 3.57178 42.5856 0.802856 39.1698 0.802856C35.754 0.802856 32.9851 3.57178 32.9851 6.98759V23.4802C32.9851 26.896 35.754 29.6649 39.1698 29.6649C42.5856 29.6649 45.3546 26.896 45.3546 23.4802Z" fill="#2EB67D"/>
<path fill-rule="evenodd" clip-rule="evenodd" d="M39.1698 46.1577H55.6624C59.0782 46.1577 61.8472 43.3887 61.8472 39.9729C61.8472 36.5571 59.0782 33.7882 55.6624 33.7882H39.1698C35.754 33.7882 32.9851 36.5571 32.9851 39.9729C32.9851 43.3887 35.754 46.1577 39.1698 46.1577Z" fill="#ECB22E"/>
<path fill-rule="evenodd" clip-rule="evenodd" d="M16.4927 39.9729V56.4656C16.4927 59.8814 19.2616 62.6503 22.6774 62.6503C26.0932 62.6503 28.8621 59.8814 28.8621 56.4656V39.9729C28.8621 36.5568 26.0932 33.7882 22.6774 33.7882C19.2616 33.7882 16.4927 36.5571 16.4927 39.9729Z" fill="#E01E5A"/>
<path fill-rule="evenodd" clip-rule="evenodd" d="M22.6774 0.802856C19.2616 0.802856 16.4927 3.57178 16.4927 6.98759C16.4927 10.4034 19.2616 13.1723 22.6774 13.1723H28.8621V6.98759C28.8621 3.57178 26.0932 0.802856 22.6774 0.802856Z" fill="#36C5F0"/>
<path fill-rule="evenodd" clip-rule="evenodd" d="M61.8472 23.4803C61.8472 20.0645 59.0783 17.2955 55.6625 17.2955C52.2467 17.2955 49.4778 20.0645 49.4778 23.4803V29.665H55.6625C59.0783 29.665 61.8472 26.8961 61.8472 23.4803Z" fill="#2EB67D"/>
<path fill-rule="evenodd" clip-rule="evenodd" d="M39.1698 62.6501C42.5856 62.6501 45.3546 59.8812 45.3546 56.4654C45.3546 53.0496 42.5856 50.2806 39.1698 50.2806H32.9851V56.4654C32.9851 59.8812 35.754 62.6501 39.1698 62.6501Z" fill="#ECB22E"/>
<path fill-rule="evenodd" clip-rule="evenodd" d="M0 39.9729C0 43.3887 2.76893 46.1577 6.18473 46.1577C9.60053 46.1577 12.3695 43.3887 12.3695 39.9729V33.7882H6.18473C2.76893 33.7882 0 36.5571 0 39.9729Z" fill="#E01E5A"/>
</g>
<defs>
<clipPath id="clip0_2072_420">
<rect width="62" height="62" fill="white" transform="translate(0 0.650146)"/>
</clipPath>
</defs>
</svg>
