<svg width="62" height="60" viewBox="0 0 62 60" fill="none" xmlns="http://www.w3.org/2000/svg">
<g clip-path="url(#clip0_2072_358)">
<path d="M4.84375 0H57.1562C59.8314 0 62 2.06853 62 4.62019V54.5183C62 57.0699 59.8314 59.1385 57.1562 59.1385H4.84375C2.16862 59.1385 0 57.0699 0 54.5183V4.62019C0 2.06853 2.16862 0 4.84375 0Z" fill="#3178C6"/>
<path d="M36.4536 46.3116V52.6921C37.5415 53.2239 38.8282 53.6226 40.3136 53.8885C41.7989 54.1544 43.3644 54.2872 45.0103 54.2872C46.6141 54.2872 48.1379 54.141 49.5814 53.8486C51.0248 53.5561 52.2907 53.0742 53.3784 52.4031C54.4663 51.7318 55.3275 50.8544 55.9623 49.771C56.5968 48.6878 56.9141 47.3486 56.9141 45.7535C56.9141 44.5971 56.7327 43.5834 56.3701 42.7127C56.0076 41.8421 55.4844 41.0677 54.801 40.3899C54.1178 39.7119 53.2982 39.1039 52.343 38.5654C51.3876 38.0272 50.3101 37.5187 49.1105 37.0403C48.2319 36.6945 47.444 36.3591 46.7465 36.0333C46.0493 35.7076 45.4564 35.3754 44.9684 35.0363C44.4802 34.6974 44.1036 34.3384 43.8386 33.9596C43.5737 33.5807 43.4412 33.1522 43.4412 32.6735C43.4412 32.2348 43.5596 31.8396 43.7967 31.4873C44.0338 31.135 44.3688 30.8326 44.8011 30.5801C45.2334 30.3274 45.7633 30.1315 46.391 29.9917C47.0185 29.8522 47.716 29.7824 48.483 29.7824C49.041 29.7824 49.6303 29.8224 50.2508 29.9021C50.8715 29.9818 51.4956 30.1047 52.1234 30.271C52.7509 30.4371 53.3609 30.6464 53.9538 30.8991C54.5464 31.1516 55.094 31.4441 55.5961 31.7763V25.8146C54.5779 25.4425 53.4656 25.1666 52.2592 24.9871C51.0529 24.8076 49.6685 24.718 48.1064 24.718C46.5165 24.718 45.0103 24.8809 43.5877 25.2066C42.1651 25.5321 40.9132 26.0405 39.8323 26.7317C38.7515 27.4231 37.8973 28.3037 37.2695 29.3738C36.642 30.4438 36.3281 31.7232 36.3281 33.212C36.3281 35.1128 36.9033 36.7344 38.0542 38.0771C39.2048 39.4195 40.9515 40.556 43.2946 41.4865C44.2152 41.8455 45.073 42.1976 45.8679 42.5434C46.663 42.889 47.3498 43.2478 47.9287 43.6199C48.5075 43.9921 48.9643 44.3975 49.299 44.8362C49.6337 45.2749 49.801 45.7734 49.801 46.3317C49.801 46.7436 49.6964 47.1259 49.4871 47.4782C49.2781 47.8303 48.9606 48.1362 48.5353 48.3953C48.1101 48.6545 47.5799 48.8571 46.9454 49.0034C46.3109 49.1496 45.5681 49.2228 44.7173 49.2228C43.2668 49.2228 41.8304 48.9803 40.4078 48.4949C38.9849 48.0098 37.6669 47.2821 36.4536 46.3116ZM25.3042 30.4337H33.9062V25.18H9.92969V30.4337H18.4897V53.8252H25.3042V30.4337Z" fill="white"/>
</g>
<defs>
<clipPath id="clip0_2072_358">
<rect width="62" height="59.1385" fill="white"/>
</clipPath>
</defs>
</svg>

