<svg width="139" height="99" viewBox="0 0 139 99" fill="none" xmlns="http://www.w3.org/2000/svg">
<rect width="138.077" height="98.6266" rx="9.86266" fill="white"/>
<mask id="mask0_2252_557" style="mask-type:luminance" maskUnits="userSpaceOnUse" x="0" y="0" width="139" height="99">
<rect width="138.077" height="98.6266" rx="9.86266" fill="white"/>
</mask>
<g mask="url(#mask0_2252_557)">
<path d="M138.077 98.626H0V92.0508H138.077V98.626ZM138.077 85.4766H0V78.9014H138.077V85.4766ZM138.077 72.3271H0V65.752H138.077V72.3271ZM138.077 59.1748H0V52.5996H138.077V59.1748ZM138.077 46.0254H0V39.4502H138.077V46.0254ZM138.077 32.876H0V26.3008H138.077V32.876ZM138.077 19.7246H0V13.1494H138.077V19.7246ZM138.077 6.5752H0V0H138.077V6.5752Z" fill="#D02F44"/>
<rect width="59.176" height="46.0257" fill="#46467F"/>
<g filter="url(#filter0_d_2252_557)">
<path d="M9.86243 32.8774C11.6781 32.8774 13.1505 34.3489 13.1505 36.1646C13.1505 37.9802 11.6781 39.4517 9.86243 39.4517C8.04693 39.4515 6.57532 37.9801 6.57532 36.1646C6.57532 34.349 8.04693 32.8776 9.86243 32.8774ZM23.0128 32.8774C24.8285 32.8775 26.2999 34.3489 26.2999 36.1646C26.2999 37.9802 24.8285 39.4517 23.0128 39.4517C21.1972 39.4517 19.7257 37.9802 19.7257 36.1646C19.7257 34.3489 21.1972 32.8774 23.0128 32.8774ZM36.1632 32.8774C37.9789 32.8774 39.4513 34.3489 39.4513 36.1646C39.4513 37.9802 37.9789 39.4517 36.1632 39.4517C34.3476 39.4515 32.8761 37.9801 32.8761 36.1646C32.8761 34.349 34.3476 32.8776 36.1632 32.8774ZM49.3136 32.8774C51.1292 32.8775 52.6007 34.3489 52.6007 36.1646C52.6007 37.9802 51.1292 39.4516 49.3136 39.4517C47.4979 39.4517 46.0255 37.9802 46.0255 36.1646C46.0255 34.3489 47.4979 32.8774 49.3136 32.8774ZM16.4376 26.3013C18.2532 26.3013 19.7256 27.7728 19.7257 29.5884C19.7257 31.404 18.2533 32.8765 16.4376 32.8765C14.6222 32.8762 13.1505 31.4039 13.1505 29.5884C13.1507 27.773 14.6223 26.3015 16.4376 26.3013ZM29.588 26.3013C31.4036 26.3013 32.876 27.7728 32.8761 29.5884C32.8761 31.404 31.4037 32.8765 29.588 32.8765C27.7724 32.8764 26.3009 31.404 26.3009 29.5884C26.301 27.7729 27.7725 26.3013 29.588 26.3013ZM42.7384 26.3013C44.5539 26.3014 46.0254 27.7729 46.0255 29.5884C46.0255 31.404 44.5539 32.8763 42.7384 32.8765C40.9227 32.8765 39.4503 31.404 39.4503 29.5884C39.4505 27.7728 40.9228 26.3013 42.7384 26.3013ZM9.86243 19.7251C11.6781 19.7251 13.1505 21.1975 13.1505 23.0132C13.1503 24.8286 11.6779 26.3003 9.86243 26.3003C8.04708 26.3001 6.57556 24.8285 6.57532 23.0132C6.57532 21.1976 8.04693 19.7253 9.86243 19.7251ZM23.0128 19.7251C24.8285 19.7251 26.2999 21.1975 26.2999 23.0132C26.2997 24.8286 24.8283 26.3003 23.0128 26.3003C21.1973 26.3003 19.726 24.8286 19.7257 23.0132C19.7257 21.1975 21.1972 19.7251 23.0128 19.7251ZM36.1632 19.7251C37.9789 19.7251 39.4513 21.1975 39.4513 23.0132C39.451 24.8286 37.9787 26.3003 36.1632 26.3003C34.3478 26.3002 32.8763 24.8286 32.8761 23.0132C32.8761 21.1976 34.3476 19.7252 36.1632 19.7251ZM49.3136 19.7251C51.1292 19.7252 52.6007 21.1976 52.6007 23.0132C52.6005 24.8286 51.129 26.3002 49.3136 26.3003C47.4981 26.3003 46.0258 24.8286 46.0255 23.0132C46.0255 21.1975 47.4979 19.7251 49.3136 19.7251ZM16.4376 13.1519C18.2532 13.1519 19.7256 14.6234 19.7257 16.439C19.7257 18.2546 18.2533 19.7271 16.4376 19.7271C14.6222 19.7268 13.1505 18.2545 13.1505 16.439C13.1507 14.6236 14.6223 13.1521 16.4376 13.1519ZM29.588 13.1519C31.4036 13.1519 32.876 14.6234 32.8761 16.439C32.8761 18.2546 31.4037 19.7271 29.588 19.7271C27.7724 19.727 26.3009 18.2546 26.3009 16.439C26.301 14.6235 27.7725 13.1519 29.588 13.1519ZM42.7384 13.1519C44.5539 13.152 46.0254 14.6235 46.0255 16.439C46.0255 18.2545 44.5539 19.7269 42.7384 19.7271C40.9227 19.7271 39.4503 18.2546 39.4503 16.439C39.4505 14.6234 40.9228 13.1519 42.7384 13.1519ZM9.86243 6.57568C11.6779 6.57568 13.1503 8.04733 13.1505 9.86279C13.1505 11.6785 11.6781 13.1509 9.86243 13.1509C8.04697 13.1506 6.57532 11.6783 6.57532 9.86279C6.57556 8.04748 8.04711 6.57592 9.86243 6.57568ZM23.0128 6.57568C24.8285 6.57569 26.2999 8.04811 26.2999 9.86377C26.2997 11.6792 24.8283 13.1509 23.0128 13.1509C21.1973 13.1509 19.726 11.6792 19.7257 9.86377C19.7257 8.0481 21.1972 6.57568 23.0128 6.57568ZM36.1632 6.57568C37.9789 6.57568 39.4513 8.0481 39.4513 9.86377C39.4511 11.6792 37.9787 13.1509 36.1632 13.1509C34.3478 13.1508 32.8763 11.6792 32.8761 9.86377C32.8761 8.04817 34.3476 6.5758 36.1632 6.57568ZM49.3136 6.57568C51.1292 6.57578 52.6007 8.04816 52.6007 9.86377C52.6005 11.6792 51.129 13.1508 49.3136 13.1509C47.4981 13.1509 46.0258 11.6792 46.0255 9.86377C46.0255 8.0481 47.4979 6.57568 49.3136 6.57568Z" fill="url(#paint0_linear_2252_557)"/>
</g>
</g>
<defs>
<filter id="filter0_d_2252_557" x="6.57532" y="6.57568" width="46.0254" height="37.8073" filterUnits="userSpaceOnUse" color-interpolation-filters="sRGB">
<feFlood flood-opacity="0" result="BackgroundImageFix"/>
<feColorMatrix in="SourceAlpha" type="matrix" values="0 0 0 0 0 0 0 0 0 0 0 0 0 0 0 0 0 0 127 0" result="hardAlpha"/>
<feOffset dy="4.93133"/>
<feColorMatrix type="matrix" values="0 0 0 0 0 0 0 0 0 0 0 0 0 0 0 0 0 0 0.06 0"/>
<feBlend mode="normal" in2="BackgroundImageFix" result="effect1_dropShadow_2252_557"/>
<feBlend mode="normal" in="SourceGraphic" in2="effect1_dropShadow_2252_557" result="shape"/>
</filter>
<linearGradient id="paint0_linear_2252_557" x1="6.57532" y1="6.57568" x2="6.57532" y2="39.4517" gradientUnits="userSpaceOnUse">
<stop stop-color="white"/>
<stop offset="1" stop-color="#F0F0F0"/>
</linearGradient>
</defs>
</svg>
