<svg width="62" height="62" viewBox="0 0 62 62" fill="none" xmlns="http://www.w3.org/2000/svg">
<g clip-path="url(#clip0_2072_413)">
<mask id="mask0_2072_413" style="mask-type:alpha" maskUnits="userSpaceOnUse" x="0" y="0" width="62" height="62">
<path d="M43.7942 60.9028C44.7669 61.2801 45.8761 61.2559 46.858 60.7856L59.5731 54.6949C60.9091 54.0549 61.7588 52.7086 61.7588 51.2318V9.93256C61.7588 8.45576 60.9091 7.10964 59.5731 6.46961L46.858 0.378651C45.5695 -0.238549 44.0615 -0.0873731 42.9308 0.731056C42.7691 0.847971 42.6152 0.978508 42.471 1.12236L18.1293 23.2298L7.52666 15.2177C6.53965 14.4718 5.1591 14.5329 4.24242 15.3631L0.841791 18.4425C-0.27949 19.4579 -0.280776 21.214 0.839014 22.231L10.034 30.5821L0.839014 38.9332C-0.280776 39.9502 -0.27949 41.7063 0.841791 42.7217L4.24242 45.801C5.1591 46.6313 6.53965 46.6923 7.52666 45.9466L18.1293 37.9343L42.471 60.0419C42.856 60.4254 43.3081 60.7143 43.7942 60.9028ZM46.3285 16.6252L27.8587 30.5821L46.3285 44.539V16.6252Z" fill="white"/>
</mask>
<g mask="url(#mask0_2072_413)">
<path d="M59.6108 6.47908L46.8858 0.379731C45.413 -0.326266 43.6526 -0.0284606 42.4966 1.12229L0.839523 38.9332C-0.280947 39.9502 -0.279659 41.7063 0.842302 42.7217L4.24499 45.801C5.16225 46.6313 6.54364 46.6923 7.53123 45.9466L57.696 8.0614C59.3789 6.79042 61.7962 7.98537 61.7962 10.0883V9.94124C61.7962 8.46509 60.9468 7.11944 59.6108 6.47908Z" fill="#0065A9"/>
<path d="M59.6108 54.6851L46.8858 60.7844C45.413 61.4903 43.6526 61.1925 42.4966 60.0418L0.839523 22.231C-0.280947 21.214 -0.279659 19.4578 0.842302 18.4425L4.24499 15.363C5.16225 14.5329 6.54364 14.4718 7.53123 15.2176L57.696 53.1026C59.3789 54.3736 61.7962 53.1788 61.7962 51.0757V51.2229C61.7962 52.6989 60.9468 54.0445 59.6108 54.6851Z" fill="#007ACC"/>
<path d="M46.846 60.7894C45.3727 61.4947 43.6123 61.1967 42.4563 60.0459C43.8806 61.4638 46.3162 60.4594 46.3162 58.4541V2.71791C46.3162 0.712561 43.8806 -0.291731 42.4563 1.12627C43.6123 -0.02459 45.3727 -0.322815 46.846 0.382558L59.5688 6.47352C60.9058 7.11355 61.7559 8.45968 61.7559 9.93648V51.2358C61.7559 52.7125 60.9058 54.0586 59.5688 54.6987L46.846 60.7894Z" fill="#1F9CF0"/>
<path d="M43.7943 60.9028C44.767 61.2798 45.8762 61.2558 46.8578 60.7856L59.5729 54.6946C60.9091 54.0546 61.7588 52.7085 61.7588 51.2317V9.93243C61.7588 8.45563 60.9091 7.10951 59.5731 6.46948L46.8578 0.37853C45.5696 -0.238671 44.0616 -0.0874955 42.9306 0.730933C42.7692 0.847848 42.6153 0.978385 42.4708 1.12224L18.1293 23.2297L7.52664 15.2176C6.53966 14.4717 5.15909 14.5328 4.2424 15.3629L0.84179 18.4424C-0.27949 19.4578 -0.280776 21.2139 0.839014 22.2309L10.034 30.582L0.839014 38.9331C-0.280776 39.9502 -0.27949 41.7062 0.84179 42.7216L4.2424 45.801C5.15909 46.6312 6.53966 46.6922 7.52664 45.9465L18.1293 37.9343L42.4708 60.0418C42.8558 60.4253 43.3081 60.7142 43.7943 60.9028ZM46.3285 16.625L27.8588 30.582L46.3285 44.5389V16.625Z" fill="url(#paint0_linear_2072_413)" fill-opacity="0.25"/>
</g>
</g>
<defs>
<linearGradient id="paint0_linear_2072_413" x1="30.8794" y1="-0.00012231" x2="30.8794" y2="61.1641" gradientUnits="userSpaceOnUse">
<stop offset="1" stop-color="white" stop-opacity="0"/>
</linearGradient>
<clipPath id="clip0_2072_413">
<rect width="62" height="61.2392" fill="white"/>
</clipPath>
</defs>
</svg>
