<svg width="62" height="62" viewBox="0 0 62 62" fill="none" xmlns="http://www.w3.org/2000/svg">
<g clip-path="url(#clip0_2072_399)">
<path d="M48.934 48.7517C51.094 47.8381 53.6693 47.5056 56.9921 47.5884C56.8987 46.9667 55.7113 46.2282 54.8414 45.6873C54.5493 45.5056 54.2931 45.3463 54.126 45.2211C52.7968 44.2658 51.3845 43.2686 49.9724 42.3967C49.5175 42.1187 48.8626 41.8868 48.2323 41.6636C47.8268 41.52 47.4315 41.38 47.1063 41.2337C46.7741 41.0983 46.3215 40.9629 45.8329 40.8167C44.6723 40.4694 43.3082 40.0613 42.8696 39.4477C41.7402 37.9794 40.952 36.2039 40.1649 34.4308C40.0836 34.2477 40.0023 34.0645 39.9207 33.8818C39.5087 32.94 39.0503 31.9796 38.5894 31.0139C38.0746 29.9352 37.5565 28.8498 37.0963 27.7759C36.8957 27.3385 36.7432 26.925 36.593 26.5179C36.4011 25.9974 36.213 25.4874 35.9333 24.9515C32.9009 19.095 28.4154 14.1935 22.974 10.7461C21.1877 9.62458 19.1943 8.58591 16.9927 7.88001C16.3204 7.6784 15.5755 7.64595 14.8234 7.61317C14.1815 7.5852 13.5342 7.557 12.9222 7.42322H12.0498C11.5461 7.28331 11.0991 6.87947 10.6832 6.50381C10.4817 6.32182 10.2875 6.14644 10.0978 6.01088C8.81 5.13873 7.52248 4.55685 5.9856 3.93408C5.44569 3.68497 3.9088 3.10336 3.36888 3.56041C3.03639 3.64354 2.8704 3.76809 2.78728 4.10033C2.45504 4.59882 2.74611 5.34641 2.95352 5.8032C3.36523 6.68154 3.88582 7.32411 4.41929 7.98258C4.69314 8.3206 4.97037 8.6628 5.23802 9.04323C5.36585 9.22366 5.49913 9.40817 5.63464 9.59578C6.2477 10.4445 6.90658 11.3567 7.31482 12.2413C7.8909 13.4823 8.30152 14.7942 8.71064 16.1013C9.0684 17.2443 9.42501 18.3836 9.89011 19.4687C10.2638 20.3411 10.8454 21.3378 11.3853 22.1271C11.5546 22.3581 11.7754 22.5662 11.9989 22.7769C12.3782 23.1345 12.7654 23.4995 12.9222 23.9962C13.3261 24.6694 12.5845 26.5971 12.1339 27.7683C12.0285 28.0425 11.9389 28.2752 11.8838 28.4406C10.8037 31.8464 11.0114 36.5816 12.2575 39.5306C12.302 39.6345 12.3462 39.7401 12.3907 39.8464C12.8446 40.9304 13.3317 42.0939 14.5419 42.3967C14.5796 42.359 14.5832 42.347 14.5913 42.3412C14.6011 42.3342 14.6174 42.3364 14.7082 42.3135C14.769 41.8361 14.8207 41.3623 14.8717 40.8951C15.0647 39.1271 15.2472 37.4544 15.8712 36.0417C16.1684 35.3122 16.6589 34.7233 17.1369 34.1493C17.3937 33.8408 17.647 33.5367 17.8648 33.2173C18.1284 33.3754 18.2248 33.7342 18.3237 34.1027C18.3806 34.3149 18.4385 34.5303 18.5296 34.7125C18.5688 34.806 18.6082 34.9002 18.6479 34.9949C19.1544 36.2045 19.6994 37.5059 20.3156 38.6999C21.6862 41.3583 23.2234 43.9333 24.9677 46.2595C25.549 47.0902 26.38 48.004 27.1276 48.7516C27.2413 48.8511 27.3598 48.936 27.4766 49.0197C27.701 49.1804 27.9188 49.3364 28.0829 49.5824H28.166V49.7072C27.3774 49.4179 26.7719 48.796 26.1808 48.1889C25.8379 47.8366 25.4998 47.4894 25.1336 47.215C23.2645 45.8027 21.0217 43.6842 19.734 41.6491C19.3284 40.7754 18.8994 39.9252 18.4645 39.0632C18.3205 38.7777 18.1758 38.491 18.0311 38.2016C18.0311 38.2016 18.0313 38.1599 18.0311 38.1185C17.8724 38.3302 17.8485 38.5418 17.8198 38.7965C17.8035 38.9415 17.7856 39.1005 17.7403 39.2815C17.5863 39.8736 17.51 40.4895 17.4363 41.0847C17.2515 42.5768 17.0828 43.9391 15.7466 44.4735C13.6284 45.3459 12.0498 43.0609 11.3853 42.0227C9.26707 38.5753 8.68546 32.7602 10.1807 28.0667C10.2963 27.7055 10.3768 27.3191 10.4571 26.9338C10.6075 26.2116 10.7571 25.4932 11.1362 24.9515C11.0529 24.4523 10.766 24.1938 10.4856 23.9411C10.3461 23.8153 10.2082 23.691 10.0978 23.5392C9.51618 22.7502 9.01796 21.8363 8.56091 20.9642C7.89679 19.6676 7.37733 18.1785 6.87391 16.7353C6.71601 16.2826 6.55969 15.8345 6.40098 15.3982C6.2592 15.0337 6.16684 14.6691 6.07572 14.3093C5.97995 13.9312 5.88553 13.5585 5.7365 13.1968C5.34386 12.3461 4.69367 11.4955 4.09004 10.7058C3.92733 10.4929 3.768 10.2845 3.61801 10.0816C3.4562 9.84942 3.24195 9.58027 3.00312 9.28025C1.83197 7.80903 0.0697368 5.59527 1.00129 3.35274C2.74586 -0.925435 8.85199 2.31407 11.2191 3.80953C11.4558 3.96171 11.7063 4.18266 11.9649 4.41079C12.3417 4.74318 12.7358 5.09084 13.1299 5.26329C13.6492 5.28414 14.1686 5.31529 14.6879 5.34644C15.207 5.37757 15.7261 5.4087 16.2451 5.42954C16.4151 5.46933 16.5843 5.50849 16.7523 5.5474C18.5135 5.95525 20.1586 6.33623 21.5617 7.13241C28.7059 11.3277 33.358 15.6059 37.6362 22.667C38.217 23.6173 38.6133 24.618 39.0168 25.6371C39.2483 26.2214 39.4821 26.8118 39.7544 27.4022C40.7928 29.8113 41.9563 32.3446 43.1604 34.6294C43.3118 34.9322 43.4534 35.2449 43.5953 35.5581C43.9594 36.362 44.3254 37.1701 44.8636 37.8277C45.0569 38.1042 45.4898 38.2517 45.9045 38.393C46.1129 38.4641 46.3167 38.5335 46.4833 38.617C47.0205 38.8937 47.6024 39.1449 48.189 39.3981C49.099 39.791 50.0201 40.1887 50.8032 40.6938C53.2122 42.189 55.5384 43.9747 57.6566 45.8027C58.0848 46.1858 58.4397 46.6544 58.7941 47.1224C59.093 47.5171 59.3915 47.9113 59.7334 48.2534V48.6271C59.069 48.8348 58.4042 49.0424 57.7397 49.2087C57.0167 49.3945 56.3348 49.4674 55.6582 49.5397C54.9744 49.6127 54.2961 49.6852 53.5861 49.8732C53.4966 49.8988 53.4049 49.9252 53.3115 49.9522C52.4939 50.1881 51.5401 50.4633 50.72 50.5379C50.7615 50.5793 50.8032 50.6208 50.8032 50.6208C51.2035 51.7604 52.9058 52.7401 54.301 53.543C54.7873 53.8229 55.2363 54.0814 55.5798 54.3176C57.1998 55.4805 58.695 56.8929 59.8997 58.5126C60.1068 58.7197 60.3139 58.9165 60.521 59.1132C60.7293 59.3111 60.9376 59.509 61.1458 59.7173C61.2864 59.9184 61.3785 60.1487 61.469 60.3752C61.5655 60.6165 61.6602 60.8536 61.8102 61.0465V61.171C61.4468 61.0413 61.197 60.7817 60.9493 60.5242C60.8005 60.3696 60.6525 60.2157 60.481 60.0912C60.0898 59.8245 59.6987 59.5348 59.3076 59.2452C58.785 58.8582 58.2625 58.4713 57.7397 58.139C56.936 57.6313 56.0677 57.2314 55.195 56.8295C54.3539 56.4422 53.5088 56.053 52.7137 55.5637C51.8001 54.9821 50.9277 54.3176 50.0556 53.6531C49.2663 53.0715 48.3944 51.9497 47.8956 51.1193C47.7699 50.9218 47.6908 50.7088 47.6147 50.5038C47.5146 50.2345 47.4197 49.9788 47.2309 49.7901C47.2931 49.2 47.8663 49.051 48.412 48.9093C48.5961 48.8615 48.7769 48.8145 48.934 48.7517Z" fill="#00546B"/>
<path d="M12.922 11.7014C13.4205 11.5768 13.9187 11.4934 14.6249 11.4934C14.7565 11.6252 14.9208 11.7373 15.0867 11.8505C15.3395 12.023 15.596 12.198 15.7464 12.449C15.8387 12.5782 15.8981 12.7074 15.9576 12.8366C16.0319 12.9982 16.1063 13.1598 16.2449 13.3214C16.2449 14.3181 15.9543 14.9826 15.3725 15.3982C15.3725 15.3982 15.331 15.4396 15.2896 15.4813C15.1236 15.1494 14.9681 14.8176 14.8125 14.4857C14.6565 14.1529 14.5006 13.8201 14.3341 13.4874C14.1723 13.261 13.9855 13.0535 13.7979 12.8452C13.5038 12.5186 13.2081 12.1902 13.0051 11.7845H12.922V11.7014Z" fill="#00546B"/>
</g>
<defs>
<clipPath id="clip0_2072_399">
<rect width="62" height="62" fill="white"/>
</clipPath>
</defs>
</svg>

