<svg width="62" height="64" viewBox="0 0 62 64" fill="none" xmlns="http://www.w3.org/2000/svg">
<g clip-path="url(#clip0_2072_410)">
<path d="M61.7465 35.7436C63.9161 18.835 51.9212 3.37662 34.9673 1.21676C18.0133 -0.943101 2.42315 10.9978 0.253542 27.8756C-1.91607 44.7533 10.0788 60.2426 27.0327 62.4333C44.0177 64.5932 59.5459 52.6522 61.7465 35.7436Z" fill="#FF6C37"/>
<path d="M42.1891 20.779L29.1095 33.7999L25.4211 30.1281C38.2838 17.3232 39.5546 18.434 42.1891 20.779Z" fill="white"/>
<path d="M29.1094 34.1083C29.0164 34.1083 28.9544 34.0775 28.8924 34.0158L25.1731 30.344C25.0491 30.2206 25.0491 30.0355 25.1731 29.912C38.2527 16.8912 39.6165 18.1254 42.375 20.5938C42.437 20.6555 42.4679 20.7172 42.4679 20.8098C42.4679 20.9023 42.437 20.9641 42.375 21.0258L29.2953 34.0158C29.2643 34.0775 29.1713 34.1083 29.1094 34.1083ZM25.8549 30.128L29.1094 33.3678L41.7241 20.8098C39.4305 18.7733 37.8808 18.1562 25.8549 30.128Z" fill="#FF6C37"/>
<path d="M32.8598 37.5333L29.2954 33.985L42.3751 20.9641C45.8774 24.4816 40.6394 30.1898 32.8598 37.5333Z" fill="white"/>
<path d="M32.8597 37.8418C32.7667 37.8418 32.7047 37.811 32.6427 37.7493L29.0783 34.2009C29.0164 34.1392 29.0164 34.0775 29.0164 33.9849C29.0164 33.8924 29.0474 33.8307 29.1093 33.7689L42.189 20.7481C42.313 20.6247 42.4989 20.6247 42.6229 20.7481C43.4288 21.4886 43.8627 22.5377 43.8317 23.6176C43.7697 27.0425 39.8644 31.3931 33.1076 37.7493C33.0146 37.811 32.9217 37.8418 32.8597 37.8418ZM29.7292 33.9849C31.7129 35.9905 32.5497 36.7927 32.8597 37.1013C38.0667 32.1645 43.1188 27.1042 43.1498 23.6176C43.1808 22.8154 42.8709 22.0131 42.344 21.396L29.7292 33.9849Z" fill="#FF6C37"/>
<path d="M25.4831 30.2206L28.1176 32.8433C28.1796 32.905 28.1796 32.9668 28.1176 33.0285C28.0866 33.0593 28.0866 33.0593 28.0556 33.0593L22.6006 34.2318C22.3217 34.2627 22.0737 34.0775 22.0117 33.7998C21.9807 33.6456 22.0427 33.4913 22.1357 33.3987L25.2971 30.2515C25.3591 30.1898 25.4521 30.1589 25.4831 30.2206Z" fill="white"/>
<path d="M22.5075 34.5403C22.0426 34.5403 21.7017 34.17 21.7017 33.7072C21.7017 33.4912 21.7946 33.2752 21.9496 33.121L25.111 29.9737C25.297 29.8195 25.545 29.8195 25.7309 29.9737L28.3655 32.5964C28.5514 32.7507 28.5514 33.0284 28.3655 33.2135C28.3035 33.2752 28.2415 33.3061 28.1485 33.3369L22.6935 34.5094C22.6315 34.5094 22.5695 34.5403 22.5075 34.5403ZM25.39 30.56L22.3525 33.5838C22.2906 33.6455 22.2596 33.7381 22.3215 33.8306C22.3525 33.9232 22.4455 33.9541 22.5385 33.9232L27.6526 32.8124L25.39 30.56Z" fill="#FF6C37"/>
<path d="M49.1007 13.5589C47.1171 11.6458 43.9247 11.7076 42.003 13.7131C40.0814 15.7187 40.1434 18.8659 42.158 20.779C43.8007 22.3526 46.2802 22.6303 48.2329 21.4578L44.6995 17.9403L49.1007 13.5589Z" fill="white"/>
<path d="M45.6294 22.476C42.6849 22.476 40.2983 20.1001 40.2983 17.1689C40.2983 14.2377 42.6849 11.8618 45.6294 11.8618C46.9931 11.8618 48.3259 12.3864 49.3177 13.3429C49.3797 13.4046 49.4107 13.4663 49.4107 13.5588C49.4107 13.6514 49.3797 13.7131 49.3177 13.7748L45.1335 17.9403L48.4189 21.2109C48.5429 21.3343 48.5429 21.5195 48.4189 21.6429C48.3879 21.6737 48.3879 21.6737 48.3569 21.7046C47.551 22.1983 46.5902 22.476 45.6294 22.476ZM45.6294 12.5098C43.0259 12.5098 40.9182 14.6079 40.9492 17.1998C40.9492 19.7916 43.0568 21.8897 45.6604 21.8589C46.3732 21.8589 47.0861 21.7046 47.737 21.3652L44.4826 18.1563C44.4206 18.0946 44.3896 18.0328 44.3896 17.9403C44.3896 17.8477 44.4206 17.786 44.4826 17.7243L48.6358 13.5897C47.799 12.88 46.7452 12.5098 45.6294 12.5098Z" fill="#FF6C37"/>
<path d="M49.1937 13.6514L49.1317 13.5897L44.6995 17.9403L48.2018 21.4269C48.5428 21.2109 48.8837 20.9641 49.1627 20.6864C51.1463 18.7425 51.1463 15.5953 49.1937 13.6514Z" fill="white"/>
<path d="M48.233 21.7663C48.14 21.7663 48.078 21.7354 48.016 21.6737L44.4826 18.1562C44.4206 18.0945 44.3896 18.0328 44.3896 17.9402C44.3896 17.8477 44.4206 17.7859 44.4826 17.7242L48.8838 13.3428C49.0078 13.2194 49.1938 13.2194 49.3178 13.3428L49.4107 13.4045C51.4874 15.4718 51.4874 18.8042 49.4417 20.9023C49.1318 21.2109 48.7909 21.4886 48.4189 21.7045C48.3259 21.7354 48.264 21.7663 48.233 21.7663ZM45.1335 17.9402L48.264 21.0566C48.5119 20.9023 48.7599 20.6863 48.9458 20.5012C50.7125 18.7425 50.8055 15.8729 49.1008 14.0216L45.1335 17.9402Z" fill="#FF6C37"/>
<path d="M42.7159 21.3343C41.972 20.5938 40.7632 20.5938 40.0194 21.3343L28.3345 32.9667L30.2871 34.9106L42.6539 24.1113C43.4597 23.4325 43.5217 22.2291 42.8399 21.4269C42.7779 21.396 42.7469 21.3652 42.7159 21.3343Z" fill="white"/>
<path d="M30.2562 35.2192C30.1633 35.2192 30.1013 35.1884 30.0393 35.1266L28.0866 33.1828C27.9627 33.0593 27.9627 32.8742 28.0866 32.7508L39.7715 21.1184C40.6394 20.2545 42.0341 20.2545 42.902 21.1184C43.7698 21.9824 43.7698 23.3708 42.902 24.2348C42.871 24.2656 42.84 24.2965 42.809 24.3273L30.4422 35.1266C30.4112 35.1884 30.3492 35.2192 30.2562 35.2192ZM28.7685 32.9668L30.2872 34.4787L42.4371 23.8645C43.1189 23.3091 43.1809 22.2909 42.623 21.6121C42.0651 20.9333 41.0423 20.8716 40.3604 21.427C40.3294 21.4578 40.2984 21.4887 40.2365 21.5195L28.7685 32.9668Z" fill="#FF6C37"/>
<path d="M19.3771 46.2036C19.2532 46.2653 19.1912 46.3887 19.2222 46.5121L19.7491 48.7337C19.8731 49.0423 19.6871 49.4125 19.3461 49.5051C19.0982 49.5977 18.8192 49.5051 18.6643 49.32L15.2549 45.9567L26.3819 34.8798L30.2252 34.9415L32.8287 37.5333C32.2088 38.0578 28.4585 41.6679 19.3771 46.2036Z" fill="white"/>
<path d="M19.1291 49.8136C18.8811 49.8136 18.6332 49.721 18.4782 49.5359L15.0998 46.1727C15.0378 46.111 15.0068 46.0493 15.0068 45.9567C15.0068 45.8641 15.0378 45.8024 15.0998 45.7407L26.2268 34.6637C26.2888 34.602 26.3818 34.5712 26.4438 34.5712L30.2871 34.6329C30.3801 34.6329 30.4421 34.6637 30.504 34.7254L33.1076 37.3173C33.1696 37.379 33.2006 37.4715 33.2006 37.5641C33.2006 37.6567 33.1696 37.7184 33.0766 37.7801L32.8596 37.9652C29.5742 40.8348 25.111 43.7043 19.563 46.4504L20.0899 48.6411C20.1829 49.0422 19.9969 49.4742 19.625 49.6902C19.439 49.7827 19.2841 49.8136 19.1291 49.8136ZM15.7197 45.9567L18.9121 49.1039C19.0051 49.2582 19.1911 49.3199 19.3461 49.2273C19.501 49.1348 19.563 48.9497 19.47 48.7954L18.9431 46.5738C18.8811 46.2961 19.0051 46.0493 19.2531 45.9258C24.7391 43.1797 29.1713 40.3411 32.4257 37.5333L30.1321 35.25L26.5678 35.1883L15.7197 45.9567Z" fill="#FF6C37"/>
<path d="M12.6203 48.6103L15.2858 45.9568L19.2531 49.9062L12.9302 49.4743C12.6513 49.4434 12.4653 49.1966 12.4963 48.9189C12.4963 48.7955 12.5273 48.672 12.6203 48.6103Z" fill="white"/>
<path d="M19.2532 50.1839L12.8993 49.7519C12.4344 49.721 12.1245 49.3199 12.1555 48.8571C12.1864 48.672 12.2484 48.4868 12.4034 48.3634L15.0689 45.7099C15.1929 45.5865 15.3789 45.5865 15.5028 45.7099L19.4701 49.6593C19.5631 49.7519 19.5941 49.8753 19.5321 49.9987C19.4701 50.1222 19.3772 50.1839 19.2532 50.1839ZM15.2859 46.3887L12.8373 48.8262C12.7443 48.8879 12.7443 49.0422 12.8373 49.1039C12.8683 49.1348 12.8993 49.1656 12.9613 49.1656L18.4473 49.5359L15.2859 46.3887Z" fill="#FF6C37"/>
<path d="M25.297 36.2991C25.111 36.2991 24.9871 36.1449 24.9871 35.9906C24.9871 35.898 25.0181 35.8363 25.08 35.7746L28.0865 32.7817C28.2105 32.6582 28.3964 32.6582 28.5204 32.7817L30.4731 34.7255C30.5661 34.8181 30.5971 34.9107 30.5661 35.0341C30.5351 35.1266 30.4421 35.2192 30.3181 35.2501L25.359 36.2991C25.328 36.2991 25.297 36.2991 25.297 36.2991ZM28.3035 33.4296L26.2578 35.466L29.6052 34.7564L28.3035 33.4296Z" fill="#FF6C37"/>
<path d="M30.2253 34.9415L26.8159 35.682C26.5679 35.7437 26.32 35.5894 26.258 35.3426C26.227 35.1883 26.258 35.034 26.382 34.9106L28.2726 33.0284L30.2253 34.9415Z" fill="white"/>
<path d="M26.7539 35.9906C26.3199 35.9906 25.979 35.6512 25.979 35.2192C25.979 35.0032 26.072 34.8181 26.196 34.6638L28.0866 32.7817C28.2106 32.6582 28.3966 32.6582 28.5205 32.7817L30.4732 34.7255C30.5662 34.8181 30.5972 34.9107 30.5662 35.0341C30.5352 35.1266 30.4422 35.2192 30.3182 35.2501L26.9088 35.9906C26.8468 35.9906 26.7849 35.9906 26.7539 35.9906ZM28.3036 33.4296L26.6299 35.0958C26.5679 35.1575 26.5679 35.2192 26.5989 35.2809C26.6299 35.3426 26.6919 35.3735 26.7849 35.3735L29.6363 34.7564L28.3036 33.4296Z" fill="#FF6C37"/>
<path d="M49.2249 16.6136C49.1629 16.4284 48.9459 16.3359 48.76 16.3976C48.574 16.4593 48.481 16.6753 48.543 16.8604C48.543 16.8913 48.574 16.9221 48.574 16.953C48.76 17.3232 48.698 17.7861 48.45 18.1255C48.326 18.2797 48.357 18.4957 48.481 18.6191C48.636 18.7426 48.8529 18.7117 48.9769 18.5574C49.4418 17.9712 49.5348 17.2307 49.2249 16.6136Z" fill="#FF6C37"/>
</g>
<defs>
<clipPath id="clip0_2072_410">
<rect width="62" height="63.6501" fill="white"/>
</clipPath>
</defs>
</svg>
