<svg width="26" height="22" viewBox="0 0 26 22" fill="none" xmlns="http://www.w3.org/2000/svg">
<path d="M2.02356 9.72942C1.25361 9.72942 0.629442 10.3536 0.629442 11.1235C0.629442 11.8935 1.25361 12.5177 2.02356 12.5177V9.72942ZM25.3152 12.1093C25.8597 11.5649 25.8597 10.6822 25.3152 10.1377L16.4431 1.26564C15.8987 0.721198 15.016 0.721198 14.4715 1.26564C13.9271 1.81007 13.9271 2.69278 14.4715 3.23722L22.3579 11.1235L14.4715 19.0099C13.9271 19.5543 13.9271 20.437 14.4715 20.9814C15.016 21.5259 15.8987 21.5259 16.4431 20.9814L25.3152 12.1093ZM2.02356 12.5177H24.3294V9.72942H2.02356V12.5177Z" fill="#F9F1DA"/>
</svg>
