<svg width="105" height="105" viewBox="0 0 105 105" fill="none" xmlns="http://www.w3.org/2000/svg">
<circle cx="52.4535" cy="52.275" r="52.275" fill="#0D2BD6"/>
<path d="M74.968 39.1567L75.0943 39.0725C74.8416 38.6092 74.4626 38.1881 74.0836 37.9775L53.7426 26.2699C53.4057 26.0593 52.9425 25.9751 52.4371 25.9751C51.9317 25.9751 51.4685 26.1014 51.1316 26.2699L30.917 38.0196C30.201 38.4408 29.6957 39.4936 29.6957 40.2938V63.7511C29.6957 64.2144 29.7799 64.7198 30.0747 65.183L29.9905 65.2251C30.201 65.562 30.4958 65.8568 30.7906 66.0253L51.0895 77.775C51.4264 77.9856 51.8896 78.0698 52.395 78.0698C52.9004 78.0698 53.3636 77.9435 53.7005 77.775L73.9151 66.0253C74.6311 65.6041 75.1364 64.5513 75.1364 63.7511V40.2517C75.1785 39.9148 75.1364 39.5357 74.968 39.1567ZM52.4371 68.6363C43.2563 68.6363 35.8022 61.1822 35.8022 52.0014C35.8022 42.8206 43.2563 35.3665 52.4371 35.3665C58.6278 35.3665 64.0184 38.7777 66.8821 43.7892L61.4073 46.9477C59.6386 43.7892 56.2695 41.6835 52.4371 41.6835C46.7518 41.6835 42.1192 46.316 42.1192 52.0014C42.1192 57.6868 46.7518 62.3193 52.4371 62.3193C56.2695 62.3193 59.6386 60.2136 61.4073 57.0972L66.84 60.2978C63.9763 65.2672 58.5857 68.6363 52.4371 68.6363ZM73.9151 51.1591H72.5675L72.1885 52.8437H73.9151V54.9494H71.8094L71.3041 57.4762H69.2405L69.7459 54.9494H68.1455L67.6402 57.4762H65.6187L66.1241 54.9494H65.0712V52.8437H66.5452L66.9242 51.1591H65.0712V49.0534H67.3033L67.8086 46.5266H69.8722L69.3668 49.0534H70.9672L71.4725 46.5266H73.494L72.9886 49.0534H73.9151V51.1591ZM68.5667 52.8437H70.167L70.546 51.1591H68.9457L68.5667 52.8437Z" fill="#F9F1DA"/>
</svg>
