<svg width="105" height="105" viewBox="0 0 105 105" fill="none" xmlns="http://www.w3.org/2000/svg">
<circle cx="52.6928" cy="52.275" r="52.275" fill="#0D2BD6"/>
<path d="M52.8482 57.2919C55.8652 57.2919 58.3109 54.8273 58.3109 51.7871C58.3109 48.7469 55.8652 46.2823 52.8482 46.2823C49.8312 46.2823 47.3854 48.7469 47.3854 51.7871C47.3854 54.8273 49.8312 57.2919 52.8482 57.2919Z" fill="#F9F1DA"/>
<path d="M73.5969 42.7091C72.5427 42.3228 71.4406 41.9365 70.2905 41.5985C70.5781 40.4396 70.8177 39.2807 71.0093 38.1701C72.0156 31.7961 70.9135 27.3054 67.8467 25.567C66.9362 25.0359 65.9299 24.7944 64.7799 24.7944C61.4256 24.7944 57.1608 27.3054 52.8481 31.5064C48.5354 27.3054 44.2706 24.7944 40.9163 24.7944C39.7663 24.7944 38.76 25.0359 37.8495 25.567C34.7827 27.3537 33.6806 31.8444 34.6869 38.1701C34.8785 39.2807 35.1181 40.4396 35.4057 41.5985C34.2556 41.9365 33.1535 42.2745 32.0993 42.7091C26.1094 45.0269 22.8509 48.2138 22.8509 51.7871C22.8509 55.3604 26.1573 58.5474 32.0993 60.8651C33.1535 61.2514 34.2556 61.6377 35.4057 61.9758C35.1181 63.1347 34.8785 64.2936 34.6869 65.4042C33.6806 71.7781 34.7827 76.2688 37.8495 78.0072C38.76 78.5383 39.7663 78.7798 40.9163 78.7798C44.3185 78.7798 48.5833 76.2688 52.8481 72.0678C57.1608 76.2688 61.4256 78.7798 64.7799 78.7798C65.9299 78.7798 66.9362 78.5383 67.8467 78.0072C70.9135 76.2206 72.0156 71.7298 71.0093 65.4042C70.8177 64.2936 70.5781 63.1347 70.2905 61.9758C71.4406 61.6377 72.5427 61.2997 73.5969 60.8651C79.5868 58.5474 82.8453 55.3604 82.8453 51.7871C82.8453 48.2138 79.5868 45.0269 73.5969 42.7091ZM66.505 27.9814C68.4696 29.1403 69.1405 32.7136 68.3259 37.7838C68.1821 38.7978 67.9425 39.8601 67.655 40.9707C65.1632 40.3913 62.5277 40.005 59.7484 39.7635C58.1192 37.4457 56.442 35.3694 54.7649 33.4862C58.3108 29.9612 61.9048 27.5468 64.8278 27.5468C65.4507 27.5468 66.0258 27.6917 66.505 27.9814ZM61.1381 56.6159C60.2755 58.1611 59.2692 59.7062 58.215 61.2514C56.442 61.3963 54.669 61.4446 52.8481 61.4446C50.9793 61.4446 49.2063 61.3963 47.4812 61.2514C46.427 59.7062 45.4686 58.1611 44.6061 56.6159C43.6956 55.0224 42.8331 53.3806 42.0664 51.7871C42.8331 50.1936 43.6956 48.5519 44.6061 46.9584C45.4686 45.4132 46.4749 43.868 47.5291 42.3228C49.3021 42.1779 51.0751 42.1296 52.896 42.1296C54.7649 42.1296 56.5378 42.1779 58.2629 42.3228C59.3171 43.868 60.2755 45.4132 61.1381 46.9584C62.0485 48.5519 62.911 50.1936 63.6777 51.7871C62.8631 53.3806 62.0485 54.9741 61.1381 56.6159ZM65.1153 55.0224C65.8341 56.7124 66.4091 58.3542 66.9362 59.996C65.307 60.3823 63.5819 60.672 61.761 60.9134C62.336 59.996 62.959 59.0302 63.4861 58.0162C64.0611 57.0022 64.5882 55.9881 65.1153 55.0224ZM52.8481 68.1083C51.698 66.8528 50.5959 65.5007 49.5417 64.1004C50.6438 64.1487 51.746 64.197 52.8481 64.197C53.9502 64.197 55.0524 64.1487 56.1545 64.1004C55.1003 65.5007 53.9982 66.8528 52.8481 68.1083ZM43.9352 60.8651C42.1143 60.6237 40.3892 60.334 38.76 59.9477C39.2871 58.3542 39.8621 56.6641 40.5809 54.9741C41.108 55.9398 41.6351 56.9539 42.2101 57.9196C42.7851 58.9819 43.3602 59.8994 43.9352 60.8651ZM40.5809 48.5518C39.8621 46.8618 39.2871 45.22 38.76 43.5782C40.3892 43.1919 42.1143 42.9022 43.9352 42.6608C43.3602 43.5782 42.7372 44.544 42.2101 45.558C41.6351 46.5721 41.108 47.5861 40.5809 48.5518ZM52.8481 35.466C53.9982 36.7214 55.1003 38.0735 56.1545 39.4738C55.0524 39.4255 53.9502 39.3772 52.8481 39.3772C51.746 39.3772 50.6438 39.4255 49.5417 39.4738C50.5959 38.0735 51.698 36.7214 52.8481 35.466ZM63.4861 45.6063L61.761 42.7091C63.5819 42.9505 65.307 43.2402 66.9362 43.6265C66.4091 45.22 65.8341 46.9101 65.1153 48.6001C64.5882 47.5861 64.0611 46.5721 63.4861 45.6063ZM37.3703 37.7838C36.5557 32.7136 37.2266 29.1403 39.1912 27.9814C39.6704 27.6917 40.2455 27.5468 40.8684 27.5468C43.7435 27.5468 47.3374 29.9129 50.9313 33.4862C49.2542 35.3211 47.577 37.4457 45.9478 39.7635C43.1685 40.005 40.533 40.4396 38.0412 40.9707C37.7537 39.8601 37.562 38.7978 37.3703 37.7838ZM25.5344 51.7871C25.5344 49.5176 28.2657 47.1032 33.0576 45.3166C34.016 44.9303 35.0702 44.5923 36.1244 44.3026C36.8911 46.7169 37.8495 49.2762 38.9996 51.8354C37.8495 54.3946 36.8432 56.9056 36.1244 59.3199C29.5116 57.3885 25.5344 54.4912 25.5344 51.7871ZM39.1912 75.5928C37.2266 74.4339 36.5557 70.8606 37.3703 65.7905C37.5141 64.7764 37.7537 63.7141 38.0412 62.6035C40.533 63.1829 43.1685 63.5692 45.9478 63.8107C47.577 66.1285 49.2542 68.2048 50.9313 70.088C47.3854 73.613 43.7914 76.0274 40.8684 76.0274C40.2455 76.0274 39.6704 75.8825 39.1912 75.5928ZM68.3259 65.7905C69.1405 70.8606 68.4696 74.4339 66.505 75.5928C66.0258 75.8825 65.4507 76.0274 64.8278 76.0274C61.9527 76.0274 58.3588 73.6613 54.7649 70.088C56.442 68.2531 58.1192 66.1285 59.7484 63.8107C62.5277 63.5692 65.1632 63.1347 67.655 62.6035C67.9425 63.7141 68.1342 64.7764 68.3259 65.7905ZM72.6386 58.2576C71.6802 58.6439 70.626 58.9819 69.5718 59.2717C68.8051 56.8573 67.8467 54.2981 66.6966 51.7388C67.8467 49.1796 68.853 46.6686 69.5718 44.2543C76.1846 46.1858 80.1618 49.083 80.1618 51.7871C80.1618 54.0566 77.3825 56.471 72.6386 58.2576Z" fill="#F9F1DA"/>
</svg>
