<svg width="106" height="105" viewBox="0 0 106 105" fill="none" xmlns="http://www.w3.org/2000/svg">
<circle cx="53.0356" cy="52.275" r="52.275" fill="#0D2BD6"/>
<g clip-path="url(#clip0_243_110)">
<path d="M45.4938 79.1586C50.3999 79.1586 54.3577 75.2008 54.3577 70.2947V61.4308H45.4938C40.5877 61.4308 36.6299 65.3886 36.6299 70.2947C36.6299 75.2008 40.5877 79.1586 45.4938 79.1586Z" fill="#F9F1DA"/>
<path d="M36.6299 52.5668C36.6299 47.6607 40.5877 43.7029 45.4938 43.7029H54.3577V61.4307H45.4938C40.5877 61.4307 36.6299 57.4729 36.6299 52.5668Z" fill="#F9F1DA"/>
<path d="M36.6299 34.8389C36.6299 29.9328 40.5877 25.975 45.4938 25.975H54.3577V43.7028H45.4938C40.5877 43.7028 36.6299 39.745 36.6299 34.8389Z" fill="#F9F1DA"/>
<path d="M54.3578 25.975H63.2217C68.1278 25.975 72.0856 29.9328 72.0856 34.8389C72.0856 39.745 68.1278 43.7028 63.2217 43.7028H54.3578V25.975Z" fill="#F9F1DA"/>
<path d="M72.0856 52.5668C72.0856 57.4729 68.1278 61.4307 63.2217 61.4307C58.3156 61.4307 54.3578 57.4729 54.3578 52.5668C54.3578 47.6607 58.3156 43.7029 63.2217 43.7029C68.1278 43.7029 72.0856 47.6607 72.0856 52.5668Z" fill="#F9F1DA"/>
</g>
<defs>
<clipPath id="clip0_243_110">
<rect width="52.7713" height="52.7713" fill="white" transform="translate(26.7358 25.9751)"/>
</clipPath>
</defs>
</svg>
