<svg width="105" height="105" viewBox="0 0 105 105" fill="none" xmlns="http://www.w3.org/2000/svg">
<circle cx="52.3642" cy="52.275" r="52.275" fill="#0D2BD6"/>
<path d="M25.9036 52.001V78.1371H78.1757V25.865H25.9036V52.001ZM68.0266 49.9102C69.2785 50.2007 70.4164 50.8555 71.2967 51.792C71.7813 52.2965 72.2026 52.8582 72.5512 53.4647C72.5512 53.5316 70.2931 55.0579 68.9173 55.911C68.8671 55.9444 68.6664 55.727 68.4447 55.3966C68.1936 54.9633 67.8367 54.6006 67.4075 54.3425C66.9782 54.0843 66.4906 53.9391 65.99 53.9205C64.4052 53.8117 63.3848 54.6439 63.3932 56.0114C63.3801 56.3518 63.458 56.6896 63.619 56.9899C63.9661 57.7133 64.6142 58.1441 66.6466 59.0222C70.3893 60.6322 71.9909 61.6944 72.9861 63.204C74.0985 64.8767 74.3452 67.5781 73.5925 69.577C72.7561 71.7515 70.7071 73.2277 67.8091 73.717C66.4855 73.8686 65.1482 73.8545 63.8281 73.6751C61.8134 73.3483 59.9549 72.389 58.5214 70.9361C58.0405 70.405 57.1038 69.0208 57.1623 68.9205C57.315 68.8072 57.4757 68.7051 57.6432 68.6152L59.5668 67.5112L61.0681 66.6414L61.3817 67.1056C61.911 67.8627 62.5846 68.5079 63.3639 69.0041C65.0366 69.8823 67.3198 69.761 68.4489 68.7448C68.828 68.3725 69.0645 67.879 69.1172 67.3502C69.1699 66.8214 69.0356 66.2909 68.7375 65.8511C68.3193 65.2698 67.4829 64.7805 65.1453 63.7602C62.4481 62.5976 61.2856 61.8784 60.2234 60.7326C59.5603 59.9765 59.0707 59.0844 58.789 58.119C58.5789 57.016 58.5479 55.8864 58.697 54.7736C59.2532 52.1683 61.2061 50.3492 64.0581 49.8098C65.3788 49.6464 66.7167 49.683 68.0266 49.9185V49.9102ZM55.7573 52.1014V54.2425H48.9702V73.5748H44.157V54.2383H37.3533V52.1474C37.335 51.4276 37.3546 50.7074 37.4118 49.9896C37.4369 49.9562 41.5936 49.9394 46.6117 49.9478H55.7322L55.7573 52.1014Z" fill="#F9F1DA"/>
</svg>
