<svg width="105" height="105" viewBox="0 0 105 105" fill="none" xmlns="http://www.w3.org/2000/svg">
<circle cx="52.6178" cy="52.275" r="52.275" fill="#0D2BD6"/>
<g clip-path="url(#clip0_243_165)">
<path d="M52.0897 24.7944C51.6775 24.7948 51.2727 24.9028 50.9151 25.1078L29.9572 37.2795L37.2879 50.7281L52.3394 24.8168C52.257 24.8063 52.1743 24.7989 52.0914 24.7944H52.0897ZM53.065 25.0492V25.0501L67.8865 50.5613L74.8543 37.7381C74.7243 37.6065 74.5789 37.491 74.4213 37.394L63.6208 31.1216L53.2272 25.112H53.2242C53.1737 25.0863 53.1181 25.0703 53.065 25.0488V25.0492ZM52.6338 25.1537L37.5259 51.1644L52.5095 78.6554C52.5517 78.647 52.5929 78.6457 52.6346 78.6343L67.6494 50.9976L52.6338 25.1537ZM29.5954 37.5027C28.9629 37.9369 28.6058 38.6617 28.6058 39.4378V64.0651C28.6058 64.4567 28.7127 64.8391 28.8938 65.179L37.0386 51.1581L29.5954 37.5027ZM75.1461 38.0923L68.1371 50.9913L75.5744 63.793V39.4374C75.5744 38.9531 75.4135 38.4839 75.1461 38.0923ZM67.9009 51.4284L53.2419 78.4073L53.2651 78.3956L74.4243 66.1055L74.426 66.1047C75.0164 65.7707 75.3946 65.1971 75.5226 64.5494L67.9009 51.4284ZM37.2766 51.5944L29.157 65.574C29.328 65.7846 29.5297 65.9682 29.7593 66.1072L29.7597 66.1089L50.6911 78.2654L50.9143 78.3939L50.9168 78.3947H50.9176C51.0259 78.4583 51.14 78.5067 51.2537 78.5514C51.3144 78.5741 51.375 78.5952 51.4361 78.6129C51.4887 78.6284 51.5418 78.639 51.5944 78.6503C51.6963 78.6718 51.7978 78.6874 51.9006 78.6958C51.9503 78.7 52.0004 78.7 52.0501 78.7L37.2766 51.5944Z" fill="#F9F1DA"/>
</g>
<defs>
<clipPath id="clip0_243_165">
<rect width="53.9056" height="53.9056" fill="white" transform="translate(25.1373 24.7944)"/>
</clipPath>
</defs>
</svg>
