<svg width="106" height="105" viewBox="0 0 106 105" fill="none" xmlns="http://www.w3.org/2000/svg">
<circle cx="52.8713" cy="52.275" r="52.275" fill="#0D2BD6"/>
<path d="M47.0599 50.9002H59.3398C62.7582 50.9002 65.4509 48.0078 65.4509 44.5751V32.8683C65.4509 29.5363 62.658 27.033 59.3213 26.4771C57.2097 26.1255 55.0278 25.9654 52.9255 25.9755C50.824 25.9852 48.8775 26.1642 47.1117 26.4771C41.9085 27.3956 41.025 29.3202 41.025 32.8683V37.4238H53.238V39.1083H36.2981C32.7252 39.1083 29.5961 41.2595 28.6178 45.3458C27.4888 50.0288 27.4386 52.8921 28.6178 57.782C29.4917 61.4214 31.5784 63.9554 35.1518 63.9554H39.3404V58.4604C39.3404 54.4019 42.8898 50.9002 47.0599 50.9002ZM46.2858 34.4295C45.0115 34.4295 43.9788 33.3855 43.9788 32.0943C43.9788 30.7976 45.011 29.7439 46.2858 29.7439C47.5555 29.7439 48.5932 30.7976 48.5932 32.0943C48.5928 33.3855 47.5551 34.4295 46.2858 34.4295ZM77.7823 45.3458C76.8987 41.788 75.2121 39.1083 71.6341 39.1083H67.1355V44.5751C67.1355 48.8075 63.432 52.1636 59.3398 52.1636H47.0599C43.6958 52.1636 41.025 55.2488 41.025 58.6179V70.3255C41.025 73.6567 43.8655 75.6167 47.1155 76.5727C51.0076 77.7169 54.6934 77.9237 59.3499 76.5727C62.4449 75.6761 65.4509 73.8728 65.4509 70.3255V65.64H53.238V63.9554H71.6341C75.207 63.9554 76.5391 61.5229 77.7823 57.7815C79.0655 53.9302 79.0103 50.2857 77.7823 45.3458ZM60.1134 68.7635C61.3882 68.7635 62.4209 69.8075 62.4209 71.0996C62.4209 72.395 61.3887 73.4491 60.1134 73.4491C58.8437 73.4491 57.8065 72.3954 57.8065 71.0996C57.8065 69.8075 58.8437 68.7635 60.1134 68.7635Z" fill="#F9F1DA"/>
</svg>
