<svg width="269" height="269" viewBox="0 0 269 269" fill="none" xmlns="http://www.w3.org/2000/svg">
<circle cx="134.5" cy="134.5" r="134.5" fill="#0D2BD6"/>
<path d="M67 67V202.518H202.518V67H67ZM138.683 182.476C136.682 186.54 132.864 189.21 128.44 190.499C121.641 192.061 115.138 191.17 110.301 188.267C107.064 186.281 104.535 183.224 102.819 179.701L113.14 173.381C113.23 173.419 113.501 173.909 113.863 174.542C115.179 176.747 116.315 178.308 118.546 179.404C120.738 180.152 125.55 180.63 127.409 176.773C128.544 174.811 128.183 168.503 128.183 161.525C128.182 150.558 128.233 139.638 128.233 128.796H140.927C140.927 140.722 140.992 152.017 140.927 163.654C140.954 170.787 141.573 177.147 138.683 182.476ZM191.344 178.889C186.931 193.983 162.33 194.473 152.499 184.501C150.422 182.154 149.12 180.927 147.881 178.218C153.105 175.213 153.105 175.213 158.189 172.272C160.95 176.516 163.503 178.85 168.097 179.805C174.328 180.566 180.598 178.425 179.192 171.807C177.747 166.401 166.431 165.086 158.731 159.305C150.913 154.055 149.081 141.297 155.505 134.007C157.647 131.31 161.298 129.298 165.129 128.331L169.128 127.814C176.804 127.659 181.603 129.686 185.125 133.62C186.105 134.613 186.905 135.684 188.402 138.005C184.312 140.611 184.325 140.586 178.468 144.379C177.216 141.684 175.14 139.992 172.946 139.257C169.54 138.225 165.244 139.347 164.353 142.947C164.044 144.056 164.108 145.088 164.599 146.92C165.979 150.067 170.611 151.435 174.765 153.345C186.724 158.195 190.763 163.396 191.756 169.586C192.712 174.916 191.525 178.373 191.344 178.889Z" fill="#F9F1DA"/>
</svg>
