<svg width="106" height="105" viewBox="0 0 106 105" fill="none" xmlns="http://www.w3.org/2000/svg">
<circle cx="52.7821" cy="52.275" r="52.275" fill="#0D2BD6"/>
<g clip-path="url(#clip0_243_141)">
<path d="M79.4522 47.4005C77.5864 46.3157 75.1132 46.1855 73.0305 46.793C72.7701 44.5367 71.2949 42.5842 69.5593 41.1957L68.865 40.6316L68.2576 41.3259C67.086 42.671 66.7389 44.9272 66.9125 46.6628C67.0427 47.9211 67.4332 49.2228 68.2142 50.2642C67.6067 50.6113 66.9559 51.0886 66.3484 51.3055C65.1335 51.7394 63.7884 52.1733 62.4867 52.1733H59.5796V46.0554H53.9389V35.2079H47.4304V40.4147H36.5829V46.0554H30.9422V52.13H26.0826L25.9958 52.7808C25.7788 55.5578 26.1259 58.2479 27.2975 60.8079L27.7748 61.7625L27.8182 61.8493C31.246 67.6635 37.2338 70.0934 43.7857 70.0934C56.4555 70.0934 66.9125 64.4093 71.6854 52.4771C74.8962 52.6506 78.1939 51.6961 79.7559 48.6154L80.1464 47.8344L79.4522 47.4005ZM37.4507 41.7164H41.7897V46.4893H37.4507V41.7164ZM43.1348 60.8947C43.1348 61.6323 42.5273 62.2398 41.7897 62.2398C41.0521 62.2398 40.4446 61.6323 40.4446 60.8947C40.4446 60.1571 41.0521 59.5496 41.7897 59.5496C42.5273 59.593 43.1348 60.1571 43.1348 60.8947ZM37.4507 47.3571H41.7897V52.13H37.4507V47.3571ZM31.81 47.3571H36.5829V52.13H31.81V47.3571ZM43.829 69.1388C36.9734 69.0954 33.2853 66.7958 30.248 63.7585C31.1592 63.8018 32.027 63.8452 32.808 63.8452C33.5022 63.8452 34.1965 63.8452 34.8473 63.8018C36.5395 63.7151 38.0148 63.4981 39.2297 63.151C40.2277 65.4507 42.0501 67.5768 45.3043 69.1388H43.829ZM47.4304 52.13H42.6575V47.3571H47.4304V52.13ZM47.4304 46.4893H42.6575V41.7164H47.4304V46.4893ZM53.0711 52.13H48.2982V47.3571H53.0711V52.13ZM53.0711 46.4893H48.2982V41.7164H53.0711V46.4893ZM53.0711 40.8486H48.2982V36.0757H53.0711V40.8486ZM58.7118 52.13H53.9389V47.3571H58.7118V52.13ZM42.1368 60.0269C42.0501 59.9835 41.9199 59.9401 41.7897 59.9401C41.269 59.9401 40.8351 60.374 40.8351 60.8947C40.8351 61.4154 41.269 61.8493 41.7897 61.8493C42.3104 61.8493 42.7443 61.4154 42.7443 60.8947C42.7443 60.7645 42.7009 60.6344 42.6575 60.5476C42.5707 60.6778 42.484 60.7646 42.3104 60.7646C42.0934 60.7646 41.9199 60.591 41.9199 60.374C41.9633 60.2005 42.0501 60.0703 42.1368 60.0269Z" fill="#F9F1DA"/>
</g>
<defs>
<clipPath id="clip0_243_141">
<rect width="55.5391" height="55.5391" fill="white" transform="translate(25.3015 24.7944)"/>
</clipPath>
</defs>
</svg>
