<svg width="106" height="105" viewBox="0 0 106 105" fill="none" xmlns="http://www.w3.org/2000/svg">
<circle cx="52.9464" cy="52.275" r="52.275" fill="#0D2BD6"/>
<g clip-path="url(#clip0_243_137)">
<path d="M75.0287 66.1676C72.0921 66.0872 69.8499 66.3618 67.9317 67.1695C67.3871 67.3999 66.5187 67.4049 66.4299 68.0876C66.7293 68.4018 66.7752 68.8705 67.014 69.2571C67.4714 69.9958 68.2446 70.9892 68.934 71.511C69.6874 72.0787 70.464 72.6872 71.2717 73.1791C72.7095 74.0559 74.3136 74.5563 75.6953 75.4331C76.5115 75.9511 77.3205 76.6026 78.1169 77.1867C78.5102 77.4747 78.7751 77.9237 79.2847 78.1048V78.0226C79.0164 77.6807 78.9474 77.2098 78.7006 76.8531L77.6149 75.7674C76.5536 74.3592 75.2064 73.1223 73.7754 72.0955C72.6337 71.2748 70.0774 70.1676 69.6019 68.8402L69.5181 68.7563C70.3275 68.6641 71.2751 68.3714 72.0234 68.1705C73.2784 67.8349 74.4008 67.9221 75.6953 67.5864L77.4489 67.0865V66.7526C76.7941 66.0813 76.327 65.1914 75.6132 64.5829C73.7429 62.9906 71.7029 61.4012 69.6023 60.0754C68.4374 59.3401 66.998 58.8613 65.7628 58.238C65.3467 58.0291 64.6177 57.9188 64.3431 57.5701C63.695 56.7442 63.3413 55.6964 62.8414 54.7325C61.7936 52.714 60.7652 50.5114 59.8357 48.3876C59.2023 46.9402 58.7896 45.5121 58 44.2141C54.2097 37.9826 50.1302 34.2205 43.8097 30.5238C42.4642 29.7375 40.8453 29.4267 39.1343 29.0203L36.3788 28.854C35.8178 28.6203 35.2354 27.9342 34.7089 27.6003C32.6155 26.2766 27.2443 23.3994 25.6928 27.1829C24.7141 29.5699 27.1571 31.8992 28.0305 33.11C28.6441 33.9573 29.4287 34.9095 29.8663 35.8638C30.156 36.4922 30.2053 37.1205 30.4521 37.7838C31.0577 39.4191 31.5871 41.1988 32.3721 42.709C32.7683 43.4738 33.2059 44.2786 33.7079 44.9629C34.0141 45.3824 34.5418 45.5685 34.626 46.215C34.1092 46.9372 34.0798 48.0574 33.7904 48.9705C32.4858 53.085 32.9793 58.1976 34.8761 61.2411C35.4586 62.1773 36.8306 64.1807 38.7157 63.4125C40.3657 62.7396 39.9972 60.6587 40.4693 58.8213C40.5762 58.4052 40.5105 58.099 40.7194 57.8194V57.9032L42.2229 60.9072C43.3351 62.6987 45.3073 64.5707 46.9805 65.8341C47.8476 66.4889 48.5303 67.6205 49.6522 68.0038V67.92H49.5684C49.3511 67.581 49.0108 67.4411 48.7345 67.1699C48.0813 66.5285 47.3544 65.7322 46.8145 64.9985C45.293 62.9341 43.9487 60.6735 42.7249 58.3214C42.1391 57.1978 41.6308 55.9592 41.1372 54.8159C40.9464 54.3749 40.9498 53.707 40.5531 53.48C40.0136 54.3172 39.2172 54.9953 38.7995 55.9837C38.1332 57.5646 38.046 59.4943 37.7993 61.493C37.6527 61.5456 37.7171 61.5094 37.6316 61.5768C36.4685 61.2955 36.0608 60.0994 35.6279 59.0714C34.5354 56.4756 34.3316 52.2953 35.2939 49.3048C35.5424 48.5316 36.6677 46.097 36.212 45.3815C35.9947 44.6694 35.2775 44.2562 34.8761 43.7117C34.3792 43.0387 33.8844 42.1522 33.5403 41.374C32.6454 39.3504 32.2293 37.0771 31.2864 35.0308C30.8357 34.0521 30.0756 33.0616 29.4506 32.1932C28.7579 31.2292 27.9834 30.5183 27.4468 29.3539C27.2561 28.9395 26.9979 28.2762 27.2792 27.8521C27.3698 27.564 27.4965 27.444 27.7808 27.3505C28.2643 26.977 29.6136 27.4756 30.1169 27.6845C31.4561 28.2404 32.5729 28.7702 33.7079 29.5219C34.2507 29.882 34.802 30.5798 35.4598 30.774H36.2116C37.3861 31.0439 38.7022 30.8561 39.8009 31.19C41.7419 31.7805 43.4808 32.6986 45.0601 33.6954C49.8703 36.7339 53.8054 41.0569 56.4965 46.2175C56.929 47.0484 57.1168 47.8397 57.4984 48.7211C58.2665 50.4979 59.2356 52.3257 60.0004 54.0645C60.7652 55.7967 61.5089 57.5473 62.5895 58.9897C63.1572 59.7482 65.3484 60.1546 66.3452 60.5757C67.0443 60.8701 68.1894 61.178 68.8506 61.5776C70.114 62.3395 71.3378 63.2474 72.5242 64.0813C73.1146 64.4991 74.9373 65.4155 75.0278 66.1689L75.0287 66.1676ZM37.7138 34.3633C37.1019 34.3519 36.6693 34.429 36.212 34.5297V34.6135H36.2941C36.5868 35.2123 37.1019 35.5989 37.4636 36.1152L38.2975 37.8689L38.3813 37.7867C38.898 37.4216 39.1347 36.8392 39.1313 35.9493C38.9241 35.7303 38.8946 35.4591 38.7135 35.1976C38.4769 34.8506 38.0145 34.6547 37.7133 34.3637L37.7138 34.3633Z" fill="#F9F1DA"/>
</g>
<defs>
<clipPath id="clip0_243_137">
<rect width="53.9056" height="53.9056" fill="white" transform="translate(25.4659 24.7944)"/>
</clipPath>
</defs>
</svg>
