<svg width="106" height="105" viewBox="0 0 106 105" fill="none" xmlns="http://www.w3.org/2000/svg">
<circle cx="53.1999" cy="52.275" r="52.275" fill="#0D2BD6"/>
<path d="M68.608 42.3643V61.0123L52.748 70.4121L52.6048 70.5426V77.5209L52.748 77.6557L75.0682 64.752V38.7426L74.8577 38.692L68.5406 42.2127L68.5743 42.3643" fill="#F9F1DA"/>
<path d="M36.8374 61.1808L52.748 70.4121V77.6557L30.2592 64.7015V38.7931L30.4909 38.7594L36.77 42.4107L36.8374 42.6212V61.1808Z" fill="#F9F1DA"/>
<path d="M36.8374 42.617L30.2592 38.7931L52.6975 25.8389L75.0851 38.7425L68.608 42.3643L52.6975 33.2846L36.8374 42.617ZM38.3788 60.17V52.5474L38.5514 52.6485L44.6706 56.2071L44.7211 56.2366V63.6191L38.3788 60.17ZM60.7875 63.7918V56.3798L60.8296 56.3587L66.8392 52.8422L67.0246 52.7327V60.1026L60.7875 63.7918ZM53.0302 68.3653L52.8575 68.1885V61.0123L53.0723 60.9365L59.0819 57.4326L59.2672 57.3273V64.6762L53.0344 68.3653" fill="#F9F1DA"/>
<path d="M46.692 64.8995V57.2937L46.8647 57.3906L52.9754 60.9492L53.0259 68.3654L46.692 64.8995ZM52.3732 34.4554L46.1361 38.1446L52.4742 41.8338L58.7071 38.1951L52.3732 34.4554ZM38.3788 50.2144V42.714H38.5514L44.6705 46.2726L44.7211 46.4115V53.6804L38.3788 50.2144Z" fill="#F9F1DA"/>
<path d="M44.6116 39.0289L38.3788 42.7181L44.7169 46.4073L50.9497 42.7686L44.6116 39.0289ZM60.7875 53.853V46.5673L60.8296 46.3946L66.8392 42.9034L67.0245 42.9455V50.1512L60.7875 53.853Z" fill="#F9F1DA"/>
<path d="M60.6738 39.2017L54.4494 42.9035L60.7875 46.5926L67.0204 42.954L60.6738 39.2017ZM53.0302 58.4224L52.8575 58.2455V51.2378L53.0302 51.1493L53.0723 50.9767L59.0819 47.4728L59.2672 47.5149V54.7332L53.0344 58.4224" fill="#F9F1DA"/>
<path d="M46.692 54.9605V47.4601H46.8647L52.9754 51.0187L53.0259 51.1577V58.4223L46.692 54.9605Z" fill="#F9F1DA"/>
<path d="M52.9249 43.7709L46.692 47.46L53.0301 51.1492L59.263 47.5106L52.9249 43.7709Z" fill="#F9F1DA"/>
</svg>
