<svg width="236" height="29" viewBox="0 0 236 29" fill="none" xmlns="http://www.w3.org/2000/svg">
<g filter="url(#filter0_d_130_403)">
<path d="M0.993835 23.4688C0.778992 23.4688 0.612976 23.4443 0.495789 23.3955C0.388367 23.3564 0.315125 23.3076 0.276062 23.249C0.246765 23.1904 0.193054 23.0781 0.114929 22.9121V2.08203C0.114929 1.86719 0.114929 1.71094 0.114929 1.61328C0.124695 1.51562 0.144226 1.40332 0.173523 1.27637C0.20282 1.13965 0.246765 1.04688 0.305359 0.998047C0.373718 0.939453 0.466492 0.890625 0.583679 0.851562C0.700867 0.8125 0.847351 0.792969 1.02313 0.792969H7.02899C8.43524 0.792969 9.13837 0.96875 9.13837 1.32031V1.34961C9.0993 4.98242 9.07977 7.6875 9.07977 9.46484L13.196 0.895508L16.2282 0.910156C20.3688 0.910156 22.4391 1.00781 22.4391 1.20312C22.4391 1.24219 22.4196 1.26172 22.3806 1.26172C20.486 4.67969 18.5622 8.07812 16.6091 11.457V11.8672L17.2097 12.248L23.3327 22.7803C23.3327 22.9365 23.2204 23.1074 22.9958 23.293H13.5915L9.40204 15.1191C9.34344 15.6562 9.2995 16.4375 9.2702 17.4629C9.24091 18.4883 9.21649 19.1621 9.19696 19.4844V22.9414C9.1286 23.293 8.54266 23.4688 7.43915 23.4688H0.993835ZM31.1474 19.3672C31.079 19.5918 31.0106 19.8896 30.9423 20.2607C30.8837 20.6221 30.8251 20.9102 30.7665 21.125C30.7177 21.3301 30.6298 21.5498 30.5028 21.7842C30.3759 22.0088 30.1806 22.1748 29.9169 22.2822C29.663 22.3896 29.3309 22.4434 28.9208 22.4434H22.5927V21.9453C23.1102 20.3926 23.8622 18.0098 24.8485 14.7969C25.8446 11.584 26.6161 9.15234 27.163 7.50195V7.53125C27.495 6.58398 27.9833 5.09961 28.6278 3.07812C28.6376 3.05859 28.6522 3.03418 28.6718 3.00488C28.7597 2.8584 28.8427 2.74609 28.9208 2.66797L36.8309 2.72656C38.1786 2.72656 38.9208 2.84375 39.0575 3.07812V3.45898C39.077 3.54688 39.1845 3.77148 39.3798 4.13281C40.327 7.0332 41.0204 9.14258 41.4599 10.4609V10.6367C41.4989 10.9199 41.5868 11.2422 41.7235 11.6035C41.8602 11.9648 42.0214 12.3555 42.2069 12.7754C42.4022 13.1855 42.539 13.5078 42.6171 13.7422L43.203 15.8516C43.5448 16.9844 44.0477 18.498 44.7118 20.3926V20.3633V20.6562C44.7411 20.793 44.8143 20.9785 44.9315 21.2129C45.0487 21.4473 45.122 21.6133 45.1513 21.7109C45.1513 21.9844 45.0927 22.1602 44.9755 22.2383C44.8681 22.3164 44.6532 22.3555 44.3309 22.3555H37.5341C37.3681 22.3359 37.2606 22.3213 37.2118 22.3115C37.163 22.3018 37.0849 22.2822 36.9774 22.2529C36.8798 22.2236 36.8065 22.1846 36.7577 22.1357C36.7186 22.0869 36.6942 22.0234 36.6845 21.9453L36.1278 19.7188C36.0888 19.5332 36.0497 19.4307 36.0106 19.4111C35.9716 19.3818 35.8544 19.3672 35.6591 19.3672H31.1474ZM31.8505 14.1523V14.2109V14.1523ZM35.0731 12.3945C35.0145 12.1211 34.9266 11.6816 34.8095 11.0762C34.702 10.4609 34.5946 9.92871 34.4872 9.47949C34.3798 9.02051 34.2626 8.5957 34.1356 8.20508V7.50195C34.0575 7.29688 33.9208 7.15039 33.7255 7.0625V7.0918C33.4911 7.14062 33.2567 7.79492 33.0224 9.05469V9.75781C33.0028 9.82617 32.9589 9.88965 32.8905 9.94824C32.8222 10.0068 32.788 10.041 32.788 10.0508C32.4657 11.4766 32.202 12.6289 31.997 13.5078C31.997 13.6055 31.9725 13.7764 31.9237 14.0205C31.8749 14.2646 31.8505 14.4062 31.8505 14.4453H35.4833C35.4833 14.1914 35.3954 13.7324 35.2196 13.0684V12.7461C35.2099 12.7168 35.1806 12.6631 35.1317 12.585C35.0927 12.4971 35.0731 12.4336 35.0731 12.3945ZM46.4181 2.84375H49.1427C49.9825 2.84375 51.3253 2.82422 53.171 2.78516C55.0167 2.74609 56.3985 2.72656 57.3165 2.72656C58.1075 2.72656 58.8448 2.77051 59.5284 2.8584C60.2218 2.94629 60.9005 3.10742 61.5645 3.3418C62.2384 3.57617 62.8097 3.87402 63.2784 4.23535C63.7569 4.59668 64.1427 5.0752 64.4356 5.6709C64.7286 6.25684 64.8751 6.93555 64.8751 7.70703C64.8751 8.77148 64.6261 9.67969 64.128 10.4316C63.63 11.1836 62.8634 11.8184 61.8282 12.3359C62.2384 12.5117 62.5948 12.7412 62.8975 13.0244C63.2003 13.3076 63.4298 13.5518 63.586 13.7568C63.752 13.9619 63.9083 14.3086 64.0548 14.7969C64.211 15.2754 64.3038 15.5928 64.3331 15.749C64.3624 15.8955 64.4259 16.2666 64.5235 16.8623C64.5528 16.999 64.5723 17.1016 64.5821 17.1699C64.6212 17.5605 64.7872 18.2783 65.0802 19.3232C65.3731 20.3584 65.5196 21.1543 65.5196 21.7109C65.5196 22.0625 65.4122 22.2383 65.1973 22.2383C64.6114 22.2383 63.7227 22.2432 62.5313 22.2529C61.3497 22.2627 60.4708 22.2676 59.8946 22.2676C59.6602 22.248 59.3087 22.2383 58.8399 22.2383H57.8438C57.6485 22.1797 57.4581 21.877 57.2725 21.3301C57.087 20.7832 56.9552 20.168 56.877 19.4844L56.5548 16.877C56.4962 16.6621 56.4473 16.5107 56.4083 16.4229C56.379 16.3252 56.3204 16.2129 56.2325 16.0859C56.1446 15.9492 56.0225 15.8564 55.8663 15.8076C55.7198 15.7588 55.5294 15.7344 55.295 15.7344H54.6212V21.5938C54.6212 21.623 54.6212 21.6719 54.6212 21.7402C54.6212 21.7988 54.6212 21.8428 54.6212 21.8721C54.6212 21.8916 54.6212 21.9258 54.6212 21.9746C54.6212 22.0234 54.6163 22.0625 54.6065 22.0918C54.5968 22.1113 54.587 22.1406 54.5772 22.1797C54.5675 22.2188 54.5528 22.248 54.5333 22.2676C54.5235 22.2773 54.504 22.2969 54.4747 22.3262C54.4552 22.3457 54.4259 22.3604 54.3868 22.3701C54.3575 22.3799 54.3184 22.3896 54.2696 22.3994C54.2306 22.4092 54.1817 22.4141 54.1231 22.4141H46.4181V2.84375ZM54.7091 10.5781C54.7286 10.5977 54.7579 10.6416 54.797 10.71C54.836 10.7686 54.8751 10.8174 54.9141 10.8564C54.9532 10.8955 54.9923 10.9199 55.0313 10.9297C55.3243 10.9297 55.6173 10.9004 55.9102 10.8418C56.2032 10.7734 56.5011 10.666 56.8038 10.5195C57.1163 10.373 57.3653 10.1484 57.5509 9.8457C57.7462 9.54297 57.8438 9.18164 57.8438 8.76172C57.8438 7.74609 56.8673 7.23828 54.9141 7.23828C54.7188 7.28711 54.6212 7.36523 54.6212 7.47266V8.0293C54.6212 8.3125 54.6358 8.7373 54.6651 9.30371C54.6944 9.87012 54.7091 10.2949 54.7091 10.5781ZM67.4602 22.4141C67.4309 22.375 67.3821 22.3311 67.3138 22.2822C67.2552 22.2334 67.1868 22.1406 67.1087 22.0039V15.6758C67.1087 14.8457 67.1429 13.5713 67.2112 11.8525C67.2796 10.1338 67.3138 8.83008 67.3138 7.94141C67.3138 7.74609 67.2942 7.33105 67.2552 6.69629C67.2161 6.06152 67.1966 5.55859 67.1966 5.1875C67.1966 3.81055 67.3626 2.9707 67.6946 2.66797C69.7259 2.70703 71.2395 2.72656 72.2356 2.72656H73.6419C73.9739 2.72656 74.2278 2.73633 74.4036 2.75586C74.4231 2.73633 74.472 2.72656 74.5501 2.72656C74.5696 2.72656 74.6526 2.73633 74.7991 2.75586C74.9554 2.77539 75.0774 2.78516 75.1653 2.78516C75.4095 2.81445 75.6145 3.01953 75.7806 3.40039V3.60547C75.7806 3.71289 75.7757 3.86914 75.7659 4.07422C75.7561 4.2793 75.7513 4.43555 75.7513 4.54297V5.1875C75.7415 5.23633 75.678 5.32422 75.5608 5.45117C75.4534 5.56836 75.3997 5.66602 75.3997 5.74414V16.4375H81.6106C81.7669 16.4375 81.8841 16.4424 81.9622 16.4521C82.0403 16.4619 82.1184 16.5059 82.1966 16.584C82.2747 16.6621 82.3138 16.7793 82.3138 16.9355V21.8281C82.2356 22.2188 81.7669 22.4141 80.9075 22.4141H67.4602ZM90.7876 19.3672C90.7192 19.5918 90.6509 19.8896 90.5825 20.2607C90.5239 20.6221 90.4653 20.9102 90.4067 21.125C90.3579 21.3301 90.27 21.5498 90.1431 21.7842C90.0161 22.0088 89.8208 22.1748 89.5571 22.2822C89.3032 22.3896 88.9712 22.4434 88.561 22.4434H82.2329V21.9453C82.7505 20.3926 83.5024 18.0098 84.4888 14.7969C85.4848 11.584 86.2563 9.15234 86.8032 7.50195V7.53125C87.1352 6.58398 87.6235 5.09961 88.2681 3.07812C88.2778 3.05859 88.2925 3.03418 88.312 3.00488C88.3999 2.8584 88.4829 2.74609 88.561 2.66797L96.4712 2.72656C97.8188 2.72656 98.561 2.84375 98.6977 3.07812V3.45898C98.7173 3.54688 98.8247 3.77148 99.02 4.13281C99.9673 7.0332 100.661 9.14258 101.1 10.4609V10.6367C101.139 10.9199 101.227 11.2422 101.364 11.6035C101.5 11.9648 101.662 12.3555 101.847 12.7754C102.042 13.1855 102.179 13.5078 102.257 13.7422L102.843 15.8516C103.185 16.9844 103.688 18.498 104.352 20.3926V20.3633V20.6562C104.381 20.793 104.455 20.9785 104.572 21.2129C104.689 21.4473 104.762 21.6133 104.791 21.7109C104.791 21.9844 104.733 22.1602 104.616 22.2383C104.508 22.3164 104.293 22.3555 103.971 22.3555H97.1743C97.0083 22.3359 96.9009 22.3213 96.852 22.3115C96.8032 22.3018 96.7251 22.2822 96.6177 22.2529C96.52 22.2236 96.4468 22.1846 96.3979 22.1357C96.3589 22.0869 96.3345 22.0234 96.3247 21.9453L95.7681 19.7188C95.729 19.5332 95.6899 19.4307 95.6509 19.4111C95.6118 19.3818 95.4946 19.3672 95.2993 19.3672H90.7876ZM91.4907 14.1523V14.2109V14.1523ZM94.7134 12.3945C94.6548 12.1211 94.5669 11.6816 94.4497 11.0762C94.3423 10.4609 94.2348 9.92871 94.1274 9.47949C94.02 9.02051 93.9028 8.5957 93.7759 8.20508V7.50195C93.6977 7.29688 93.561 7.15039 93.3657 7.0625V7.0918C93.1313 7.14062 92.897 7.79492 92.6626 9.05469V9.75781C92.6431 9.82617 92.5991 9.88965 92.5307 9.94824C92.4624 10.0068 92.4282 10.041 92.4282 10.0508C92.1059 11.4766 91.8423 12.6289 91.6372 13.5078C91.6372 13.6055 91.6128 13.7764 91.5639 14.0205C91.5151 14.2646 91.4907 14.4062 91.4907 14.4453H95.1235C95.1235 14.1914 95.0356 13.7324 94.8598 13.0684V12.7461C94.8501 12.7168 94.8208 12.6631 94.772 12.585C94.7329 12.4971 94.7134 12.4336 94.7134 12.3945ZM116.378 23.4688C116.163 23.4688 115.997 23.4443 115.88 23.3955C115.772 23.3564 115.699 23.3076 115.66 23.249C115.631 23.1904 115.577 23.0781 115.499 22.9121V2.08203C115.499 1.86719 115.499 1.71094 115.499 1.61328C115.509 1.51562 115.528 1.40332 115.558 1.27637C115.587 1.13965 115.631 1.04688 115.689 0.998047C115.758 0.939453 115.85 0.890625 115.968 0.851562C116.085 0.8125 116.231 0.792969 116.407 0.792969H122.413C123.819 0.792969 124.522 0.96875 124.522 1.32031V1.34961C124.483 4.98242 124.464 7.6875 124.464 9.46484L128.58 0.895508L131.612 0.910156C135.753 0.910156 137.823 1.00781 137.823 1.20312C137.823 1.24219 137.804 1.26172 137.765 1.26172C135.87 4.67969 133.946 8.07812 131.993 11.457V11.8672L132.594 12.248L138.717 22.7803C138.717 22.9365 138.604 23.1074 138.38 23.293H128.975L124.786 15.1191C124.727 15.6562 124.683 16.4375 124.654 17.4629C124.625 18.4883 124.6 19.1621 124.581 19.4844V22.9414C124.513 23.293 123.927 23.4688 122.823 23.4688H116.378ZM139.324 4.07422C139.324 3.48828 139.349 3.14648 139.398 3.04883C139.485 2.91211 139.627 2.84375 139.822 2.84375H140.174C140.33 2.84375 140.438 2.85352 140.496 2.87305H141.258C142.244 2.87305 143.733 2.84863 145.726 2.7998C147.728 2.75098 149.227 2.72656 150.223 2.72656H154.119C154.373 2.75586 154.5 2.88281 154.5 3.10742V8C154.49 8.05859 154.471 8.1123 154.441 8.16113C154.422 8.2002 154.402 8.22949 154.383 8.24902C154.373 8.25879 154.329 8.29297 154.251 8.35156C154.173 8.40039 154.119 8.43945 154.09 8.46875H147.293V10.2852H147.938C148.504 10.2852 149.368 10.2656 150.53 10.2266C151.692 10.1875 152.586 10.168 153.211 10.168C153.484 10.168 153.67 10.2217 153.768 10.3291C153.865 10.4365 153.914 10.5879 153.914 10.7832C153.914 10.832 153.904 10.915 153.885 11.0322C153.865 11.1494 153.856 11.2324 153.856 11.2812V11.8379C153.856 11.877 153.86 11.96 153.87 12.0869C153.88 12.2041 153.885 12.3066 153.885 12.3945V12.8047C153.885 13.0195 153.895 13.2344 153.914 13.4492C153.934 13.6641 153.943 13.8496 153.943 14.0059V14.3867C153.895 14.5039 153.856 14.582 153.826 14.6211C153.797 14.6602 153.748 14.6797 153.68 14.6797V14.6504C153.318 14.6504 152.693 14.6748 151.805 14.7236C150.926 14.7725 150.223 14.7969 149.695 14.7969H147.352V16.6719C147.43 16.6719 147.547 16.6768 147.703 16.6865C147.859 16.6963 147.977 16.7012 148.055 16.7012C148.494 16.7012 149.144 16.6865 150.003 16.6572C150.862 16.6279 151.483 16.6133 151.863 16.6133H153.738C154.246 16.6133 154.568 16.6719 154.705 16.7891C154.754 16.8477 154.793 16.9062 154.822 16.9648V21.6523C154.822 21.8574 154.783 22.0137 154.705 22.1211C154.627 22.2285 154.481 22.2871 154.266 22.2969H139.764L139.324 21.916V4.07422ZM156.704 6.27148C156.665 6.07617 156.646 5.51953 156.646 4.60156C156.646 3.54688 156.743 2.92188 156.939 2.72656H164.908V15.0312C164.908 16.3008 165.279 16.9355 166.021 16.9355C166.333 16.9355 166.592 16.7988 166.797 16.5254C167.002 16.2422 167.105 15.9102 167.105 15.5293V13.3613C167.163 9.08398 167.193 6.92578 167.193 6.88672C167.193 5.1875 167.173 3.95703 167.134 3.19531C167.134 2.92188 167.271 2.72656 167.544 2.60938H175.689V4.89453C175.562 8.5957 175.484 10.9785 175.454 12.043V12.9512C175.454 13.0684 175.449 13.2246 175.44 13.4199C175.43 13.6152 175.425 13.752 175.425 13.8301C175.425 14.1621 175.435 14.3965 175.454 14.5332V15.6758C175.454 17.0332 175.318 18.0098 175.044 18.6055V18.6641C174.732 19.3965 174.283 20.0312 173.697 20.5684C173.111 21.0957 172.442 21.5107 171.69 21.8135C170.938 22.1064 170.166 22.3213 169.375 22.458C168.584 22.585 167.749 22.6484 166.87 22.6484C166.597 22.6484 166.392 22.6191 166.255 22.5605H165.904C165.904 22.6582 165.757 22.707 165.464 22.707V22.7363C165.249 22.7461 164.624 22.6973 163.589 22.5898H162.915C162.3 22.5215 161.704 22.3848 161.128 22.1797C160.562 21.9746 160.01 21.6865 159.473 21.3154C158.936 20.9346 158.462 20.4854 158.052 19.9678C157.652 19.4502 157.324 18.8203 157.071 18.0781C156.817 17.3359 156.675 16.5254 156.646 15.6465C156.656 15.1387 156.656 14.4355 156.646 13.5371C156.646 12.6387 156.651 11.8232 156.66 11.0908C156.67 10.3486 156.695 9.63086 156.734 8.9375V8.52734C156.734 8.47852 156.739 8.40039 156.748 8.29297C156.758 8.18555 156.763 8.10742 156.763 8.05859C156.763 7.91211 156.753 7.69238 156.734 7.39941C156.714 7.10645 156.704 6.88672 156.704 6.74023V6.24219V6.27148ZM178.362 2.84375H181.086C181.926 2.84375 183.269 2.82422 185.115 2.78516C186.96 2.74609 188.342 2.72656 189.26 2.72656C190.051 2.72656 190.789 2.77051 191.472 2.8584C192.166 2.94629 192.844 3.10742 193.508 3.3418C194.182 3.57617 194.753 3.87402 195.222 4.23535C195.701 4.59668 196.086 5.0752 196.379 5.6709C196.672 6.25684 196.819 6.93555 196.819 7.70703C196.819 8.77148 196.57 9.67969 196.072 10.4316C195.574 11.1836 194.807 11.8184 193.772 12.3359C194.182 12.5117 194.539 12.7412 194.841 13.0244C195.144 13.3076 195.374 13.5518 195.53 13.7568C195.696 13.9619 195.852 14.3086 195.999 14.7969C196.155 15.2754 196.248 15.5928 196.277 15.749C196.306 15.8955 196.37 16.2666 196.467 16.8623C196.497 16.999 196.516 17.1016 196.526 17.1699C196.565 17.5605 196.731 18.2783 197.024 19.3232C197.317 20.3584 197.463 21.1543 197.463 21.7109C197.463 22.0625 197.356 22.2383 197.141 22.2383C196.555 22.2383 195.666 22.2432 194.475 22.2529C193.293 22.2627 192.415 22.2676 191.838 22.2676C191.604 22.248 191.252 22.2383 190.784 22.2383H189.788C189.592 22.1797 189.402 21.877 189.216 21.3301C189.031 20.7832 188.899 20.168 188.821 19.4844L188.499 16.877C188.44 16.6621 188.391 16.5107 188.352 16.4229C188.323 16.3252 188.264 16.2129 188.176 16.0859C188.088 15.9492 187.966 15.8564 187.81 15.8076C187.664 15.7588 187.473 15.7344 187.239 15.7344H186.565V21.5938C186.565 21.623 186.565 21.6719 186.565 21.7402C186.565 21.7988 186.565 21.8428 186.565 21.8721C186.565 21.8916 186.565 21.9258 186.565 21.9746C186.565 22.0234 186.56 22.0625 186.55 22.0918C186.541 22.1113 186.531 22.1406 186.521 22.1797C186.511 22.2188 186.497 22.248 186.477 22.2676C186.467 22.2773 186.448 22.2969 186.418 22.3262C186.399 22.3457 186.37 22.3604 186.331 22.3701C186.301 22.3799 186.262 22.3896 186.213 22.3994C186.174 22.4092 186.125 22.4141 186.067 22.4141H178.362V2.84375ZM186.653 10.5781C186.672 10.5977 186.702 10.6416 186.741 10.71C186.78 10.7686 186.819 10.8174 186.858 10.8564C186.897 10.8955 186.936 10.9199 186.975 10.9297C187.268 10.9297 187.561 10.9004 187.854 10.8418C188.147 10.7734 188.445 10.666 188.748 10.5195C189.06 10.373 189.309 10.1484 189.495 9.8457C189.69 9.54297 189.788 9.18164 189.788 8.76172C189.788 7.74609 188.811 7.23828 186.858 7.23828C186.663 7.28711 186.565 7.36523 186.565 7.47266V8.0293C186.565 8.3125 186.58 8.7373 186.609 9.30371C186.638 9.87012 186.653 10.2949 186.653 10.5781ZM198.906 22.4434V3.19531C198.916 3.11719 198.994 3.04883 199.14 2.99023C199.287 2.92188 199.375 2.87305 199.404 2.84375H207.285V21.916C207.236 22.1211 207.187 22.2627 207.138 22.3408C207.099 22.4092 207.031 22.4434 206.933 22.4434H198.906ZM229.792 2.84375C229.909 2.88281 229.997 3.05371 230.056 3.35645C230.124 3.64941 230.163 4.02051 230.173 4.46973C230.183 4.91895 230.183 5.34863 230.173 5.75879C230.163 6.16895 230.148 6.58887 230.129 7.01855C230.119 7.44824 230.114 7.7168 230.114 7.82422C230.095 8.21484 230.085 8.76172 230.085 9.46484V11.0176C230.085 11.7012 230.095 12.6387 230.114 13.8301C230.134 15.0215 230.143 15.9004 230.143 16.4668V21.7988C230.104 22.1309 229.831 22.2969 229.323 22.2969H221.12C220.944 22.2578 220.72 21.8477 220.446 21.0664C220.261 20.5488 219.948 19.6992 219.509 18.5176C219.079 17.3359 218.708 16.3008 218.395 15.4121C218.083 14.5137 217.8 13.6445 217.546 12.8047V12.7168V12.8047C217.516 13.4492 217.487 14.4111 217.458 15.6904C217.429 16.96 217.399 17.9121 217.37 18.5469V21.5352C217.37 21.8281 217.336 22.0332 217.267 22.1504C217.199 22.2578 217.018 22.3457 216.725 22.4141H210.69L210.046 21.7695C210.095 20.1484 210.134 17.6094 210.163 14.1523C210.192 10.6953 210.231 8.13672 210.28 6.47656V3.3125C210.378 2.96094 210.495 2.78516 210.632 2.78516V2.84375C211.296 2.84375 212.336 2.82422 213.752 2.78516C215.178 2.74609 216.247 2.72656 216.96 2.72656H219.421C219.431 2.72656 219.445 2.73145 219.465 2.74121C219.641 2.80957 219.738 2.8877 219.758 2.97559L219.772 3.07812C220.124 4.02539 220.48 5.00684 220.842 6.02246C221.203 7.03809 221.633 8.26855 222.131 9.71387C222.629 11.1494 222.975 12.1406 223.171 12.6875V10.5195C223.366 7.08203 223.464 4.64062 223.464 3.19531C223.464 3.03906 223.571 2.94141 223.786 2.90234C224.001 2.86328 224.333 2.84375 224.782 2.84375H229.792Z" fill="#F9F1DA"/>
</g>
<defs>
<filter id="filter0_d_130_403" x="0.114929" y="0.792969" width="235.072" height="27.6758" filterUnits="userSpaceOnUse" color-interpolation-filters="sRGB">
<feFlood flood-opacity="0" result="BackgroundImageFix"/>
<feColorMatrix in="SourceAlpha" type="matrix" values="0 0 0 0 0 0 0 0 0 0 0 0 0 0 0 0 0 0 127 0" result="hardAlpha"/>
<feOffset dx="5" dy="5"/>
<feComposite in2="hardAlpha" operator="out"/>
<feColorMatrix type="matrix" values="0 0 0 0 0.0901961 0 0 0 0 0.0901961 0 0 0 0 0.0901961 0 0 0 1 0"/>
<feBlend mode="normal" in2="BackgroundImageFix" result="effect1_dropShadow_130_403"/>
<feBlend mode="normal" in="SourceGraphic" in2="effect1_dropShadow_130_403" result="shape"/>
</filter>
</defs>
</svg>
